<?xml version="1.0" encoding="UTF-8"?>
<svg version="1.1" xmlns="http://www.w3.org/2000/svg" width="480" height="480">
<path d="M0 0 C158.4 0 316.8 0 480 0 C480 158.4 480 316.8 480 480 C321.6 480 163.2 480 0 480 C0 321.6 0 163.2 0 0 Z " fill="#000000" transform="translate(0,0)"/>
<path d="M0 0 C24.71413956 -0.89960468 47.17772369 8.65041811 65.80078125 24.484375 C81.59727106 39.28238328 93.64328628 60.78047993 94.73608398 82.69726562 C95.2939949 101.62214654 93.11916018 117.21811191 84.61328125 134.234375 C84.07703125 135.30816406 83.54078125 136.38195312 82.98828125 137.48828125 C75.74677948 150.83980014 63.30924212 164.40281658 49.61328125 171.234375 C48.95328125 171.234375 48.29328125 171.234375 47.61328125 171.234375 C46.53421467 165.5782677 46.27098596 159.98425363 46.0078125 154.24804688 C45.84341505 151.0366278 45.63559591 148.30131897 44.61328125 145.234375 C44.52427965 143.22532856 44.49567673 141.21340532 44.49975586 139.20239258 C44.49983139 137.96133255 44.49990692 136.72027252 44.49998474 135.44160461 C44.50509134 134.08737142 44.51030734 132.73313863 44.515625 131.37890625 C44.51749042 129.99313915 44.51891374 128.60737139 44.51991272 127.22160339 C44.52372815 123.5768959 44.53355012 119.93222835 44.5446167 116.28753662 C44.55485175 112.56734762 44.55941483 108.84715215 44.56445312 105.12695312 C44.57517327 97.82940889 44.592238 90.53189754 44.61328125 83.234375 C41.06706052 86.49689808 40.05439251 88.38215114 39.61328125 93.234375 C38.95328125 93.234375 38.29328125 93.234375 37.61328125 93.234375 C37.67515625 93.87375 37.73703125 94.513125 37.80078125 95.171875 C37.5805699 98.76866036 36.57755342 101.67695934 35.3671875 105.05078125 C33.98823339 109.04474678 33.47651234 112.42918165 33.48828125 116.671875 C33.48570312 117.59871094 33.483125 118.52554688 33.48046875 119.48046875 C33.60984073 122.16303481 34.01545291 124.62006218 34.61328125 127.234375 C35.27328125 127.234375 35.93328125 127.234375 36.61328125 127.234375 C36.61328125 128.224375 36.61328125 129.214375 36.61328125 130.234375 C37.27328125 130.234375 37.93328125 130.234375 38.61328125 130.234375 C39.98693746 132.98168743 39.62614515 135.05104564 39.4921875 138.1171875 C39.44384766 139.28378906 39.39550781 140.45039063 39.34570312 141.65234375 C39.28962891 142.87566406 39.23355469 144.09898437 39.17578125 145.359375 C39.12357422 146.59042969 39.07136719 147.82148438 39.01757812 149.08984375 C38.88760685 152.13826088 38.75263106 155.1863745 38.61328125 158.234375 C37.95328125 158.234375 37.29328125 158.234375 36.61328125 158.234375 C36.63648438 159.42675781 36.6596875 160.61914062 36.68359375 161.84765625 C36.70235303 163.41405624 36.72055306 164.980463 36.73828125 166.546875 C36.76341797 167.72540039 36.76341797 167.72540039 36.7890625 168.92773438 C36.79550781 169.68505859 36.80195313 170.44238281 36.80859375 171.22265625 C36.81906738 171.91915283 36.82954102 172.61564941 36.84033203 173.33325195 C36.61328125 175.234375 36.61328125 175.234375 34.61328125 178.234375 C27.53950445 181.17755329 20.22925076 182.71803808 12.61328125 183.234375 C12.61328125 177.624375 12.61328125 172.014375 12.61328125 166.234375 C11.95328125 166.234375 11.29328125 166.234375 10.61328125 166.234375 C10.55269531 165.10257813 10.49210937 163.97078125 10.4296875 162.8046875 C10.34528208 161.32290355 10.26063408 159.8411334 10.17578125 158.359375 C10.13646484 157.61300781 10.09714844 156.86664063 10.05664062 156.09765625 C9.89754501 152.03450636 9.89754501 152.03450636 8.61328125 148.234375 C8.19248012 144.47600352 8.05197788 140.69810887 7.86328125 136.921875 C7.79496094 135.87580078 7.72664063 134.82972656 7.65625 133.75195312 C7.60597656 132.73939453 7.55570312 131.72683594 7.50390625 130.68359375 C7.4270459 129.29660278 7.4270459 129.29660278 7.34863281 127.8815918 C7.67428099 124.62420877 8.61129958 122.80664808 10.61328125 120.234375 C11.60328125 120.234375 12.59328125 120.234375 13.61328125 120.234375 C13.61328125 119.574375 13.61328125 118.914375 13.61328125 118.234375 C14.27328125 118.234375 14.93328125 118.234375 15.61328125 118.234375 C15.61328125 117.244375 15.61328125 116.254375 15.61328125 115.234375 C16.27328125 115.234375 16.93328125 115.234375 17.61328125 115.234375 C17.61328125 104.674375 17.61328125 94.114375 17.61328125 83.234375 C16.62328125 83.729375 16.62328125 83.729375 15.61328125 84.234375 C15.28328125 92.154375 14.95328125 100.074375 14.61328125 108.234375 C12.63328125 107.739375 12.63328125 107.739375 10.61328125 107.234375 C10.61328125 99.314375 10.61328125 91.394375 10.61328125 83.234375 C9.62328125 83.729375 9.62328125 83.729375 8.61328125 84.234375 C8.28328125 92.154375 7.95328125 100.074375 7.61328125 108.234375 C5.63328125 107.739375 5.63328125 107.739375 3.61328125 107.234375 C3.28328125 99.644375 2.95328125 92.054375 2.61328125 84.234375 C1.95328125 84.234375 1.29328125 84.234375 0.61328125 84.234375 C0.61328125 92.154375 0.61328125 100.074375 0.61328125 108.234375 C-0.37671875 108.234375 -1.36671875 108.234375 -2.38671875 108.234375 C-2.38671875 99.984375 -2.38671875 91.734375 -2.38671875 83.234375 C-3.87171875 83.729375 -3.87171875 83.729375 -5.38671875 84.234375 C-5.47407338 88.77591978 -5.52723122 93.31724732 -5.57421875 97.859375 C-5.59935547 99.14457031 -5.62449219 100.42976563 -5.65039062 101.75390625 C-5.66005859 102.99785156 -5.66972656 104.24179687 -5.6796875 105.5234375 C-5.69539795 106.66506348 -5.7111084 107.80668945 -5.72729492 108.98291016 C-5.3403842 112.67672876 -4.29250439 115.06632712 -2.38671875 118.234375 C-0.60898782 119.42704806 -0.60898782 119.42704806 1.30078125 120.171875 C3.16015625 121.3359375 3.16015625 121.3359375 4.61328125 123.234375 C5.24225361 128.29868691 5.01553466 133.1583201 4.61328125 138.234375 C3.95328125 138.234375 3.29328125 138.234375 2.61328125 138.234375 C2.62488281 139.29398438 2.63648438 140.35359375 2.6484375 141.4453125 C2.65781601 142.83333158 2.66691614 144.22135255 2.67578125 145.609375 C2.68416016 146.30804688 2.69253906 147.00671875 2.70117188 147.7265625 C2.7265625 153.0078125 2.7265625 153.0078125 1.61328125 155.234375 C1.33462239 158.80386229 1.16599646 162.37319179 0.9921875 165.94921875 C0.61328125 169.234375 0.61328125 169.234375 -1.38671875 172.234375 C-1.84443938 174.97310455 -1.84443938 174.97310455 -2.01171875 177.921875 C-2.08648437 178.91574219 -2.16125 179.90960938 -2.23828125 180.93359375 C-2.31175781 182.07248047 -2.31175781 182.07248047 -2.38671875 183.234375 C-4.61644148 183.11972079 -6.84550628 182.99222734 -9.07421875 182.859375 C-10.31558594 182.78976562 -11.55695313 182.72015625 -12.8359375 182.6484375 C-16.29402925 182.24518368 -19.82167665 181.7994171 -22.38671875 179.234375 C-22.5970778 177.11325458 -22.75521976 174.98684081 -22.88671875 172.859375 C-23.10251922 169.38344592 -23.28426795 166.5417274 -24.38671875 163.234375 C-24.64439183 159.99198873 -24.82918683 156.75575179 -24.9921875 153.5078125 C-24.89353566 150.07872523 -24.89353566 150.07872523 -26.38671875 147.234375 C-26.76956014 143.81119826 -26.85710241 140.36208858 -27.01171875 136.921875 C-27.06328125 135.95830078 -27.11484375 134.99472656 -27.16796875 134.00195312 C-27.21179688 133.07189453 -27.255625 132.14183594 -27.30078125 131.18359375 C-27.34154785 130.33112061 -27.38231445 129.47864746 -27.42431641 128.6003418 C-27.38785288 126.30574422 -27.04162983 124.42532148 -26.38671875 122.234375 C-25.72671875 122.234375 -25.06671875 122.234375 -24.38671875 122.234375 C-24.38671875 121.574375 -24.38671875 120.914375 -24.38671875 120.234375 C-23.39671875 120.234375 -22.40671875 120.234375 -21.38671875 120.234375 C-21.05671875 118.584375 -20.72671875 116.934375 -20.38671875 115.234375 C-19.72671875 115.234375 -19.06671875 115.234375 -18.38671875 115.234375 C-18.66718304 111.87917441 -18.96312297 108.52550672 -19.26171875 105.171875 C-19.34035156 104.22892578 -19.41898437 103.28597656 -19.5 102.31445312 C-19.97734955 97.04524849 -20.72712897 92.2619558 -22.38671875 87.234375 C-23.04671875 87.234375 -23.70671875 87.234375 -24.38671875 87.234375 C-24.71671875 86.574375 -25.04671875 85.914375 -25.38671875 85.234375 C-28.03453354 84.37562426 -29.71855775 84.01556204 -32.390625 84.890625 C-36.42477256 87.60637209 -37.62134304 92.86772131 -39.38671875 97.234375 C-39.81984375 98.224375 -40.25296875 99.214375 -40.69921875 100.234375 C-42.03385981 106.05826325 -42.73603667 112.0010212 -39.57421875 117.234375 C-38.49140625 118.224375 -38.49140625 118.224375 -37.38671875 119.234375 C-36.36870518 120.21603094 -35.36203845 121.21028932 -34.38671875 122.234375 C-34.38671875 122.894375 -34.38671875 123.554375 -34.38671875 124.234375 C-33.72671875 124.234375 -33.06671875 124.234375 -32.38671875 124.234375 C-32.35963308 125.83844828 -32.34028392 127.4426535 -32.32421875 129.046875 C-32.31261719 129.94019531 -32.30101562 130.83351563 -32.2890625 131.75390625 C-32.38671875 134.234375 -32.38671875 134.234375 -33.38671875 137.234375 C-33.60927868 140.03365591 -33.78560209 142.8175138 -33.921875 145.62109375 C-33.96485214 146.43810257 -34.00782928 147.25511139 -34.05210876 148.09687805 C-34.18840186 150.70502444 -34.31888026 153.31342492 -34.44921875 155.921875 C-34.54063268 157.69077504 -34.63242496 159.45965557 -34.72460938 161.22851562 C-34.94970251 165.56358796 -35.16958138 169.89889718 -35.38671875 174.234375 C-49.1577046 171.84218444 -62.08803034 157.92562881 -70.38671875 147.234375 C-85.89613464 124.93958966 -91.94707287 100.09036713 -87.26171875 73.296875 C-81.2079134 47.70194911 -65.94594907 26.92665497 -43.87109375 12.98046875 C-30.2412437 4.67759341 -15.77129528 1.09143912 0 0 Z " fill="#020100" transform="translate(230.38671875,238.765625)"/>
<path d="M0 0 C3 -0.3125 3 -0.3125 6 0 C8.2492328 2.2492328 8.37489159 3.0070033 8.89453125 6.04296875 C9.04277344 6.86240967 9.19101563 7.68185059 9.34375 8.52612305 C9.4984375 9.40437744 9.653125 10.28263184 9.8125 11.1875 C12.11070505 23.41206494 15.66066225 34.72806475 21 46 C25.15467129 46.19324053 28.3382625 46.09242143 32 44 C32.20882812 43.06607422 32.20882812 43.06607422 32.421875 42.11328125 C33.15848133 39.42068648 34.25943654 38.63557442 36.4375 36.9375 C38.91277489 34.98931914 40.20421924 33.69367114 42 31 C42.66 31 43.32 31 44 31 C44.08378906 30.45601562 44.16757812 29.91203125 44.25390625 29.3515625 C45.25308979 26.20230339 46.9669173 24.01907299 48.9375 21.375 C50.00291016 19.93253906 50.00291016 19.93253906 51.08984375 18.4609375 C53 16 53 16 55 14 C57.5625 13.8125 57.5625 13.8125 60 14 C60.33 14.33 60.66 14.66 61 15 C60.93532035 17.51662648 60.8090845 19.99184871 60.625 22.5 C60.55925781 23.55380859 60.55925781 23.55380859 60.4921875 24.62890625 C60.12854231 29.87145769 60.12854231 29.87145769 59 31 C58.07780004 37.4553997 57.87068608 43.86404257 57.8125 50.375 C57.79304321 51.55243774 57.79304321 51.55243774 57.77319336 52.75366211 C57.76638709 56.97218805 58.06940813 59.13881626 60 63 C63.3 63 66.6 63 70 63 C70 62.34 70 61.68 70 61 C70.88751953 60.51080078 70.88751953 60.51080078 71.79296875 60.01171875 C74.19905778 58.68110834 76.59973771 57.34108614 79 56 C79.969375 55.46375 80.93875 54.9275 81.9375 54.375 C84.27083333 53.01041667 84.27083333 53.01041667 86 50 C86.99 50 87.98 50 89 50 C89 49.34 89 48.68 89 48 C89.51949219 47.74605469 90.03898438 47.49210937 90.57421875 47.23046875 C91.27160156 46.88628906 91.96898437 46.54210937 92.6875 46.1875 C93.4196875 45.8265625 94.151875 45.465625 94.90625 45.09375 C97.15245283 43.9699845 97.15245283 43.9699845 99.6875 42.1875 C102 41 102 41 104.6875 41.1875 C107 42 107 42 109 44 C109 49.22525255 106.76771346 51.93935229 103.47265625 55.6796875 C102 57 102 57 100 57 C99.87625 57.556875 99.7525 58.11375 99.625 58.6875 C99 61 99 61 98.0625 63.3125 C96.91740527 66.04311226 96.91740527 66.04311226 96.1875 69.1875 C95.19877289 72.36183441 94.14878666 74.63613516 92.5625 77.5 C89.68080307 83.00912648 88.6905163 88.61617866 87.67578125 94.6796875 C87 98 87 98 85.98364258 99.78662109 C84.63895908 102.81240927 84.67287554 105.43072949 84.5859375 108.734375 C84.52792969 110.67763672 84.52792969 110.67763672 84.46875 112.66015625 C84.43729733 114.02343284 84.40604993 115.38671418 84.375 116.75 C84.33679531 118.12893028 84.29774213 119.50783734 84.2578125 120.88671875 C84.16351996 124.25767718 84.0779178 127.62862978 84 131 C80.52085059 131.02887814 77.04173169 131.04675687 73.5625 131.0625 C72.56927734 131.07087891 71.57605469 131.07925781 70.55273438 131.08789062 C69.60849609 131.09111328 68.66425781 131.09433594 67.69140625 131.09765625 C66.81685791 131.10289307 65.94230957 131.10812988 65.04125977 131.11352539 C63 131 63 131 62 130 C59.54324988 129.45007053 57.09966397 128.95483342 54.625 128.5 C53.54593384 128.29818115 53.54593384 128.29818115 52.44506836 128.09228516 C47.29031156 127.1583983 42.17336083 126.53842199 36.94140625 126.2109375 C35 126 35 126 34 125 C32.03712234 124.87636703 30.06984842 124.8220456 28.10327148 124.79467773 C26.84203964 124.77473251 25.5808078 124.75478729 24.28135681 124.73423767 C22.89460373 124.71725205 21.50784934 124.70037329 20.12109375 124.68359375 C18.7100411 124.66303074 17.29899471 124.64203445 15.88795471 124.62062073 C12.1676641 124.56533245 8.44731727 124.51595314 4.72692871 124.46777344 C0.93313575 124.41760758 -2.86057523 124.36189592 -6.65429688 124.30664062 C-14.10279523 124.19897649 -21.55136159 124.09755003 -29 124 C-29 124.66 -29 125.32 -29 126 C-30.21816406 126.19335938 -31.43632812 126.38671875 -32.69140625 126.5859375 C-34.31513979 126.8487383 -35.93883574 127.1117715 -37.5625 127.375 C-38.36236328 127.50132812 -39.16222656 127.62765625 -39.98632812 127.7578125 C-43.55510141 128.34046936 -46.86935094 128.95686116 -50.3125 130.09375 C-55.69098061 131.41557998 -60.9233678 131.21008453 -66.4375 131.125 C-67.55060547 131.11597656 -68.66371094 131.10695312 -69.81054688 131.09765625 C-72.54059023 131.0742224 -75.2701801 131.041414 -78 131 C-78.02505615 130.20940186 -78.0501123 129.41880371 -78.07592773 128.60424805 C-78.19314435 124.96521698 -78.31529245 121.32636675 -78.4375 117.6875 C-78.47681641 116.44419922 -78.51613281 115.20089844 -78.55664062 113.91992188 C-77.88659946 101.78240316 -77.88659946 101.78240316 -81 91 C-81.04063832 89.33382885 -81.042721 87.66611905 -81 86 C-81.66 86 -82.32 86 -83 86 C-83.20753906 85.29617187 -83.41507813 84.59234375 -83.62890625 83.8671875 C-87.09176605 72.76864939 -92.29637269 62.68916311 -98.15234375 52.671875 C-99 51 -99 51 -99 49 C-99.66 49 -100.32 49 -101 49 C-101 46.69 -101 44.38 -101 42 C-97.47383375 41.07476687 -95.6828261 40.65554767 -92.3671875 42.328125 C-91.54476562 42.96234375 -90.72234375 43.5965625 -89.875 44.25 C-89.04742187 44.87390625 -88.21984375 45.4978125 -87.3671875 46.140625 C-86.58601562 46.75421875 -85.80484375 47.3678125 -85 48 C-82.04606033 50.29453027 -79.48640247 51.63945269 -76 53 C-71.1875 55.625 -71.1875 55.625 -70 58 C-67.93407577 59.06855937 -67.93407577 59.06855937 -65.4375 60 C-64.61121094 60.33 -63.78492188 60.66 -62.93359375 61 C-59.32706337 62.22938985 -55.70579938 63.11408851 -52 64 C-51.69015617 46.46517175 -51.69015617 46.46517175 -53 29 C-53.33 28.67 -53.66 28.34 -54 28 C-54.04063832 26.33382885 -54.042721 24.66611905 -54 23 C-54.66 23 -55.32 23 -56 23 C-56 20.36 -56 17.72 -56 15 C-52.9375909 14.14037639 -51.09009611 13.62461861 -48 14 C-45.04317726 16.18629478 -43.09652521 19.00631311 -41 22 C-40.36578125 22.89976563 -39.7315625 23.79953125 -39.078125 24.7265625 C-37.86150005 26.47106191 -36.66085137 28.22687038 -35.48046875 29.99609375 C-34.14995583 32.11404403 -34.14995583 32.11404403 -32 33 C-31.566875 33.7425 -31.13375 34.485 -30.6875 35.25 C-29.05721603 38.15791812 -29.05721603 38.15791812 -26.3125 40.625 C-24 43 -24 43 -24 46 C-20.94974189 46.2877602 -18.03756434 46.45941809 -15 46 C-12.99135641 43.6273026 -12.99135641 43.6273026 -12 41 C-11.34 41 -10.68 41 -10 41 C-9.94392578 40.1646875 -9.94392578 40.1646875 -9.88671875 39.3125 C-9.33301703 32.88521734 -7.67276721 27.59802758 -4.96484375 21.7734375 C-3.48755586 17.52698243 -3.22176872 13.15428961 -2.7890625 8.70703125 C-2.39665802 5.08743821 -2.05794378 3.08691566 0 0 Z " fill="#CF9300" transform="translate(228,91)"/>
<path d="M0 0 C1.5056301 -0.01143435 3.01122248 -0.03174815 4.51660156 -0.06152344 C15.33458405 -0.27476194 24.53122548 0.90282787 34.8449707 4.29516602 C35.63105713 4.55209229 36.41714355 4.80901855 37.22705078 5.07373047 C50.24215041 9.62042587 61.3341701 16.4509428 71.8449707 25.29516602 C72.8555957 26.05829102 73.8662207 26.82141602 74.9074707 27.60766602 C79.42420513 31.73999751 83.09758063 36.4676846 86.8449707 41.29516602 C87.44438477 42.04411133 88.04379883 42.79305664 88.66137695 43.56469727 C105.03881278 65.26194983 110.66988957 92.31156148 107.52709961 118.99389648 C103.32336024 147.07444485 89.01707825 171.56933672 66.8449707 189.29516602 C43.3595603 206.59107171 16.71790871 213.5529445 -12.32519531 209.89599609 C-34.28218532 206.39550637 -52.35810952 197.8452251 -69.1550293 183.29516602 C-69.90010742 182.65192383 -70.64518555 182.00868164 -71.4128418 181.34594727 C-86.28284801 167.46928155 -96.42050651 147.91335434 -101.1550293 128.29516602 C-101.37803711 127.43149414 -101.60104492 126.56782227 -101.83081055 125.67797852 C-107.47693404 99.1757662 -101.40627632 71.05711091 -87.1550293 48.29516602 C-71.2810493 24.30343642 -48.19944219 7.82365262 -20.1550293 1.29516602 C-13.46472379 -0.00659203 -6.78830749 0.03570876 0 0 Z M-17.1550293 15.29516602 C-18.11538086 15.46661133 -19.07573242 15.63805664 -20.06518555 15.81469727 C-33.49516541 18.61637543 -45.56207949 25.77550737 -56.1550293 34.29516602 C-56.8356543 34.81208008 -57.5162793 35.32899414 -58.2175293 35.86157227 C-74.67394799 49.0996994 -85.02956123 70.11517381 -88.76049805 90.62329102 C-91.50818151 116.19579054 -86.1770919 140.7451292 -70.1550293 161.29516602 C-61.28661781 172.00132817 -51.52103991 180.85524913 -39.1550293 187.29516602 C-38.1650293 187.29516602 -37.1750293 187.29516602 -36.1550293 187.29516602 C-36.09968018 186.19003662 -36.04433105 185.08490723 -35.98730469 183.94628906 C-35.78093115 179.84792119 -35.56903658 175.74985422 -35.35546875 171.65185547 C-35.26379068 169.87784426 -35.17361205 168.1037549 -35.08496094 166.32958984 C-34.95730989 163.78013452 -34.82427719 161.23100844 -34.69018555 158.68188477 C-34.63230614 157.4911158 -34.63230614 157.4911158 -34.57325745 156.27629089 C-34.40062802 153.07758971 -34.17327713 150.34990952 -33.1550293 147.29516602 C-33.08699963 145.5672125 -33.07007285 143.83681236 -33.0925293 142.10766602 C-33.10155273 141.20661133 -33.11057617 140.30555664 -33.11987305 139.37719727 C-33.13147461 138.69012695 -33.14307617 138.00305664 -33.1550293 137.29516602 C-33.8150293 137.29516602 -34.4750293 137.29516602 -35.1550293 137.29516602 C-35.2478418 136.45985352 -35.2478418 136.45985352 -35.3425293 135.60766602 C-36.49119067 132.33839902 -38.64324074 130.61857043 -41.1550293 128.29516602 C-42.80189198 126.64830333 -42.44464462 124.8177119 -42.5300293 122.54516602 C-42.47361829 113.90299982 -39.01888048 105.39306958 -34.1550293 98.29516602 C-30.83530431 97.13326227 -29.52654476 97.17132753 -26.1550293 98.29516602 C-25.8250293 98.95516602 -25.4950293 99.61516602 -25.1550293 100.29516602 C-24.4950293 100.29516602 -23.8350293 100.29516602 -23.1550293 100.29516602 C-20.63342469 109.69964105 -19.54361356 118.60735839 -19.1550293 128.29516602 C-19.8150293 128.29516602 -20.4750293 128.29516602 -21.1550293 128.29516602 C-21.4850293 129.94516602 -21.8150293 131.59516602 -22.1550293 133.29516602 C-23.1450293 133.29516602 -24.1350293 133.29516602 -25.1550293 133.29516602 C-25.1550293 133.95516602 -25.1550293 134.61516602 -25.1550293 135.29516602 C-25.8150293 135.29516602 -26.4750293 135.29516602 -27.1550293 135.29516602 C-28.10902292 141.23112631 -28.15194768 146.81785881 -27.7800293 152.79516602 C-27.73692627 153.51381836 -27.69382324 154.2324707 -27.64941406 154.97290039 C-27.685256 158.42898354 -27.685256 158.42898354 -26.1550293 161.29516602 C-25.94343964 163.75783457 -25.77885146 166.20289485 -25.6550293 168.67016602 C-25.40226489 174.05871739 -25.40226489 174.05871739 -24.1550293 179.29516602 C-23.88588921 182.6487369 -23.70997126 186.00191199 -23.53393555 189.36157227 C-23.443243 192.41408771 -23.443243 192.41408771 -21.1550293 194.29516602 C-15.2297454 195.88703333 -9.27267626 196.56706144 -3.1550293 196.29516602 C-3.08155273 195.1562793 -3.08155273 195.1562793 -3.0065918 193.99438477 C-2.93182617 193.00051758 -2.85706055 192.00665039 -2.7800293 190.98266602 C-2.67561523 189.5034668 -2.67561523 189.5034668 -2.5690918 187.99438477 C-2.1550293 185.29516602 -2.1550293 185.29516602 -0.1550293 182.29516602 C0.1155636 179.94909772 0.29282195 177.59150315 0.4074707 175.23266602 C0.74852983 168.48804776 0.74852983 168.48804776 1.8449707 166.29516602 C1.9166442 163.74358946 1.93805513 161.2204363 1.9074707 158.67016602 C1.90295898 157.96375977 1.89844727 157.25735352 1.89379883 156.52954102 C1.88200945 154.78471326 1.86407395 153.03992902 1.8449707 151.29516602 C2.5049707 151.29516602 3.1649707 151.29516602 3.8449707 151.29516602 C5.05497675 142.23363395 5.05497675 142.23363395 2.1340332 134.13891602 C0.02221953 132.63819687 0.02221953 132.63819687 -2.2097168 131.56860352 C-4.87647431 129.82289478 -5.20405906 128.32090931 -6.1550293 125.29516602 C-6.38208008 122.15722656 -6.38208008 122.15722656 -6.3503418 118.68188477 C-6.34389648 117.4347168 -6.33745117 116.18754883 -6.33081055 114.90258789 C-6.30567383 112.96222656 -6.30567383 112.96222656 -6.2800293 110.98266602 C-6.27100586 109.66975586 -6.26198242 108.3568457 -6.25268555 107.00415039 C-6.22914727 103.76763688 -6.19626449 100.53149453 -6.1550293 97.29516602 C-5.1650293 96.96516602 -4.1750293 96.63516602 -3.1550293 96.29516602 C-3.1550293 104.54516602 -3.1550293 112.79516602 -3.1550293 121.29516602 C-2.1650293 121.29516602 -1.1750293 121.29516602 -0.1550293 121.29516602 C-0.1550293 113.37516602 -0.1550293 105.45516602 -0.1550293 97.29516602 C0.5049707 97.29516602 1.1649707 97.29516602 1.8449707 97.29516602 C2.3399707 108.68016602 2.3399707 108.68016602 2.8449707 120.29516602 C4.8249707 120.79016602 4.8249707 120.79016602 6.8449707 121.29516602 C7.1749707 113.37516602 7.5049707 105.45516602 7.8449707 97.29516602 C8.5049707 96.96516602 9.1649707 96.63516602 9.8449707 96.29516602 C9.8449707 104.21516602 9.8449707 112.13516602 9.8449707 120.29516602 C11.8249707 120.79016602 11.8249707 120.79016602 13.8449707 121.29516602 C14.1749707 113.37516602 14.5049707 105.45516602 14.8449707 97.29516602 C15.5049707 96.96516602 16.1649707 96.63516602 16.8449707 96.29516602 C16.8449707 106.85516602 16.8449707 117.41516602 16.8449707 128.29516602 C16.1849707 128.29516602 15.5249707 128.29516602 14.8449707 128.29516602 C14.8449707 129.28516602 14.8449707 130.27516602 14.8449707 131.29516602 C14.1849707 131.29516602 13.5249707 131.29516602 12.8449707 131.29516602 C12.8449707 131.95516602 12.8449707 132.61516602 12.8449707 133.29516602 C12.2262207 133.37766602 11.6074707 133.46016602 10.9699707 133.54516602 C8.72947035 134.09573235 8.72947035 134.09573235 7.71289062 136.00756836 C6.67323127 138.74782383 6.68865129 140.7238198 6.83325195 143.64672852 C6.88030273 144.66250977 6.92735352 145.67829102 6.97583008 146.72485352 C7.03577148 147.77930664 7.09571289 148.83375977 7.1574707 149.92016602 C7.20581055 150.98235352 7.25415039 152.04454102 7.30395508 153.13891602 C7.36133431 158.38573142 7.36133431 158.38573142 8.8449707 163.29516602 C9.07723531 166.00778718 9.26433306 168.70289727 9.4074707 171.42016602 C9.47224609 172.55131836 9.47224609 172.55131836 9.53833008 173.70532227 C9.6444539 175.56838489 9.74522071 177.43175126 9.8449707 179.29516602 C10.5049707 179.29516602 11.1649707 179.29516602 11.8449707 179.29516602 C11.8449707 184.90516602 11.8449707 190.51516602 11.8449707 196.29516602 C23.8769631 195.0514417 23.8769631 195.0514417 34.8449707 190.29516602 C36.49994427 186.98521889 35.94581406 183.30393601 35.9074707 179.67016602 C35.90295898 178.86836914 35.89844727 178.06657227 35.89379883 177.24047852 C35.88200238 175.25867596 35.86406675 173.27691168 35.8449707 171.29516602 C36.5049707 171.29516602 37.1649707 171.29516602 37.8449707 171.29516602 C38.04116295 167.00384993 38.22545654 162.712105 38.4074707 158.42016602 C38.46354492 157.1968457 38.51961914 155.97352539 38.57739258 154.71313477 C38.62573242 153.5465332 38.67407227 152.37993164 38.72387695 151.17797852 C38.79457397 149.55980225 38.79457397 149.55980225 38.86669922 147.90893555 C39.03669831 145.31215212 39.03669831 145.31215212 37.8449707 143.29516602 C37.1849707 143.29516602 36.5249707 143.29516602 35.8449707 143.29516602 C35.8449707 142.30516602 35.8449707 141.31516602 35.8449707 140.29516602 C35.1849707 140.29516602 34.5249707 140.29516602 33.8449707 140.29516602 C31.69883842 130.62026321 32.81638952 121.67906003 35.8449707 112.29516602 C36.1749707 111.96516602 36.5049707 111.63516602 36.8449707 111.29516602 C36.88560902 109.62899486 36.8876917 107.96128507 36.8449707 106.29516602 C37.5049707 106.29516602 38.1649707 106.29516602 38.8449707 106.29516602 C39.1130957 105.20204102 39.3812207 104.10891602 39.6574707 102.98266602 C40.7757337 99.51016512 41.28241278 98.57689568 43.8449707 96.29516602 C43.84275009 97.0652449 43.84052948 97.83532379 43.83824158 98.6287384 C43.81821189 105.88286261 43.80298288 113.13697342 43.79315853 120.39111805 C43.78793797 124.12062064 43.7808553 127.8501004 43.76953125 131.57958984 C43.75867303 135.17814547 43.75268762 138.77667912 43.75009346 142.37524986 C43.74824452 143.74877964 43.74463405 145.1223082 43.73924065 146.49582863 C43.73199143 148.41826837 43.73156231 150.34073019 43.73144531 152.26318359 C43.7292247 153.3579451 43.72700409 154.4527066 43.72471619 155.5806427 C43.72508794 158.3920711 43.72508794 158.3920711 44.8449707 161.29516602 C45.05024386 164.06920471 45.2175384 166.83011389 45.3449707 169.60766602 C45.57667602 174.58074868 45.9094064 179.39124979 46.8449707 184.29516602 C65.42877224 177.60100095 78.08026955 159.62203675 86.2199707 142.48266602 C91.60015591 130.19146941 94.23626758 118.44665387 94.1574707 104.98266602 C94.15255615 103.97864746 94.1476416 102.97462891 94.14257812 101.94018555 C93.76027746 77.59449474 82.96961895 55.34341041 65.8449707 38.29516602 C51.70733316 24.99038515 35.58158249 18.43833228 16.8449707 14.29516602 C15.99290039 14.09149414 15.14083008 13.88782227 14.26293945 13.67797852 C3.9378819 12.04331674 -6.99096012 13.26235218 -17.1550293 15.29516602 Z " fill="#CC9100" transform="translate(231.155029296875,225.704833984375)"/>
<path d="M0 0 C0 0.66 0 1.32 0 2 C0.66 2 1.32 2 2 2 C5.23665768 9.03621235 6.16049748 15.09550741 6.0625 22.875 C6.05798828 23.56335938 6.05347656 24.25171875 6.04882812 24.9609375 C6.03716336 26.64066335 6.01923271 28.32034375 6 30 C5.34 30 4.68 30 4 30 C3.67 31.65 3.34 33.3 3 35 C2.01 35 1.02 35 0 35 C0 35.66 0 36.32 0 37 C-0.66 37 -1.32 37 -2 37 C-1.86186975 41.14612814 -1.71321141 45.29181162 -1.5625 49.4375 C-1.52318359 50.62150391 -1.48386719 51.80550781 -1.44335938 53.02539062 C-1.40146484 54.15009766 -1.35957031 55.27480469 -1.31640625 56.43359375 C-1.27974854 57.47572021 -1.24309082 58.51784668 -1.20532227 59.59155273 C-1.26484659 61.9499826 -1.26484659 61.9499826 0 63 C0.21158966 65.46266855 0.37617784 67.90772884 0.5 70.375 C0.75276441 75.76355137 0.75276441 75.76355137 2 81 C2.22560676 83.39254576 2.40848595 85.78928123 2.5625 88.1875 C2.68818359 90.09595703 2.68818359 90.09595703 2.81640625 92.04296875 C2.87699219 93.01878906 2.93757813 93.99460937 3 95 C2.34 95 1.68 95 1 95 C0.93941406 94.08476562 0.87882812 93.16953125 0.81640625 92.2265625 C0.73261719 91.03804688 0.64882812 89.84953125 0.5625 88.625 C0.48128906 87.44164062 0.40007812 86.25828125 0.31640625 85.0390625 C0.18915064 82.08481099 0.18915064 82.08481099 -1 80 C-1.07116382 77.62597499 -1.08409085 75.24999323 -1.0625 72.875 C-1.05347656 71.59367187 -1.04445312 70.31234375 -1.03515625 68.9921875 C-1.02355469 68.00476563 -1.01195312 67.01734375 -1 66 C-1.66 66 -2.32 66 -3 66 C-3.33 60.72 -3.66 55.44 -4 50 C-4.99 50.99 -5.98 51.98 -7 53 C-7.66 53 -8.32 53 -9 53 C-8.98839844 54.24652344 -8.97679687 55.49304688 -8.96484375 56.77734375 C-8.89461393 67.89560144 -9.19561288 78.91094894 -10 90 C-10.66 89.67 -11.32 89.34 -12 89 C-11.76048239 83.96820472 -11.51185323 78.93696501 -11.25537109 73.90600586 C-11.169633 72.20039588 -11.08623262 70.49466649 -11.00537109 68.78881836 C-10.52699005 58.73395752 -9.82294992 48.9166239 -8 39 C-8.66 39 -9.32 39 -10 39 C-10.12375 38.071875 -10.12375 38.071875 -10.25 37.125 C-10.78648121 34.84276697 -10.78648121 34.84276697 -12.875 34 C-13.57625 33.67 -14.2775 33.34 -15 33 C-18.50644207 29.16001831 -18.55680673 26.18139096 -18.421875 21.1484375 C-17.37399316 13.32813417 -14.08039 5.096468 -9 -1 C-5.23375329 -2.25541557 -3.62811066 -1.37061958 0 0 Z " fill="#BF8700" transform="translate(206,324)"/>
<path d="M0 0 C9.37683197 6.05587065 9.37683197 6.05587065 10.58203125 11.62890625 C10.74687891 16.11642597 10.30467006 19.26722588 8.4375 23.375 C4.02269846 28.01620162 0.34740195 30.14307922 -6 30.5 C-11.20750211 30.27806688 -14.34899772 28.57836061 -18 24.9375 C-21.63953481 20.94575215 -21.44473441 16.69628858 -21.28515625 11.52734375 C-20.76826871 6.83287197 -18.92011892 4.76560703 -15.5 1.6875 C-10.57800696 -1.75789513 -5.62369196 -1.99172423 0 0 Z " fill="#C68C00" transform="translate(237,54.0625)"/>
<path d="M0 0 C0 0.66 0 1.32 0 2 C0.763125 2.226875 1.52625 2.45375 2.3125 2.6875 C5.74256596 4.36264849 6.56979878 5.46213383 8 9 C8.72455548 13.78913501 8.46462297 17.08734773 6.25 21.4375 C3.4804061 24.59175972 1.54476013 25.73631738 -2.5859375 26.44140625 C-9.81541 26.75529091 -9.81541 26.75529091 -13.015625 24.71484375 C-16.98227512 20.48824326 -18 16.71728947 -18 11 C-17.21300089 6.54033836 -15.55285534 3.72336747 -11.9296875 0.90234375 C-8.15176273 -0.8642567 -4.06555133 -0.36156089 0 0 Z " fill="#C58C00" transform="translate(300,74)"/>
<path d="M0 0 C0 0.66 0 1.32 0 2 C0.598125 2.226875 1.19625 2.45375 1.8125 2.6875 C4.66976001 4.40185601 5.52515712 6.02123282 7 9 C7.3984375 12.0078125 7.3984375 12.0078125 7.375 15.125 C7.38273437 16.15882812 7.39046875 17.19265625 7.3984375 18.2578125 C7 21 7 21 5.7265625 22.7421875 C0.68785321 26.41292142 -3.88091193 26.79856023 -10 26 C-12.61028688 24.95691292 -13.88358948 23.94932548 -16 22 C-16 21.01 -16 20.02 -16 19 C-16.66 19 -17.32 19 -18 19 C-18.35666988 13.98680673 -18.56305357 10.14696097 -16.3125 5.5625 C-11.23879489 -0.05971377 -7.25206627 -0.42659213 0 0 Z " fill="#CE9200" transform="translate(171,74)"/>
<path d="M0 0 C2.5 1.4375 2.5 1.4375 4 4 C4.75551032 8.28909505 4.71240656 11.73005787 2.5625 15.5625 C-1.27735119 17.71656286 -4.70138931 17.61521401 -9 17 C-11.5625 16.0625 -11.5625 16.0625 -13 14 C-13.68440022 9.30696991 -13.65863727 5.05932871 -11 1 C-7.28207831 -0.23930723 -3.8632708 -0.52857629 0 0 Z " fill="#B78200" transform="translate(350,115)"/>
<path d="M0 0 C2.23946048 2.86650942 2.12507849 5.27316081 1.93359375 8.8359375 C1.5625 11 1.5625 11 0.125 13.5625 C-3.71132489 15.7145847 -7.14454811 15.74831272 -11.4375 15 C-14 13.5625 -14 13.5625 -15.4375 11 C-16.09203794 7.84315771 -16.19201533 5.14477383 -15.4375 2 C-10.54456952 -3.01227025 -6.16869297 -2.53074583 0 0 Z " fill="#BE8600" transform="translate(123.4375,117)"/>
<path d="M0 0 C0.33 0 0.66 0 1 0 C1.05556738 1.47870971 1.09347512 2.95808244 1.125 4.4375 C1.14820313 5.26121094 1.17140625 6.08492188 1.1953125 6.93359375 C1.03133384 9.50805872 0.65382375 11.55483404 0.03125 14.03125 C-1.37106437 19.99326357 -1.45601711 25.96151371 -1.625 32.0625 C-1.66367187 33.21427734 -1.70234375 34.36605469 -1.7421875 35.55273438 C-1.83565152 38.36833796 -1.92141252 41.1839486 -2 44 C0.06356895 43.7159949 2.1258285 43.42246648 4.1875 43.125 C5.91033203 42.88136719 5.91033203 42.88136719 7.66796875 42.6328125 C10.68724625 42.05939755 13.20575848 41.25240957 16 40 C14.1875 42 14.1875 42 12 44 C11.01 44 10.02 44 9 44 C9 44.66 9 45.32 9 46 C4.05 46.495 4.05 46.495 -1 47 C-4.44355216 42.45994833 -4.39989259 38.76463101 -4.25 33.3125 C-4.23831787 32.51465088 -4.22663574 31.71680176 -4.21459961 30.89477539 C-3.90424587 14.90424587 -3.90424587 14.90424587 -2 13 C-1.60333773 10.81980521 -1.25684763 8.6303537 -0.9375 6.4375 C-0.76089844 5.23996094 -0.58429688 4.04242188 -0.40234375 2.80859375 C-0.26957031 1.88175781 -0.13679688 0.95492187 0 0 Z " fill="#593F00" transform="translate(289,108)"/>
<path d="M0 0 C0.671875 1.69921875 0.671875 1.69921875 1 4 C-0.109375 6.26953125 -0.109375 6.26953125 -1.75 8.8125 C-5.18042619 14.70457461 -6.288719 20.07814922 -7.359375 26.71484375 C-8 30 -8 30 -9.01416016 31.78442383 C-10.36104833 34.81141991 -10.32707138 37.4287126 -10.4140625 40.734375 C-10.45273437 42.02988281 -10.49140625 43.32539063 -10.53125 44.66015625 C-10.56270267 46.02343284 -10.59395007 47.38671418 -10.625 48.75 C-10.66320469 50.12893028 -10.70225787 51.50783734 -10.7421875 52.88671875 C-10.83647758 56.25758922 -10.9193284 59.62877612 -11 63 C-17.93 63 -24.86 63 -32 63 C-32.33 62.34 -32.66 61.68 -33 61 C-26.07 61.33 -19.14 61.66 -12 62 C-12.01160156 59.91816406 -12.02320313 57.83632812 -12.03515625 55.69140625 C-12.04210735 53.68253702 -12.04902389 51.67366749 -12.05493164 49.66479492 C-12.0599708 48.26504772 -12.06680216 46.8653058 -12.07543945 45.46557617 C-12.0875232 43.45754223 -12.09269807 41.44947043 -12.09765625 39.44140625 C-12.10289307 38.23170166 -12.10812988 37.02199707 -12.11352539 35.77563477 C-12 33 -12 33 -11 32 C-10.855625 30.948125 -10.71125 29.89625 -10.5625 28.8125 C-10.0437064 25.29623224 -9.11866569 22.35599707 -8 19 C-7.62468554 16.67305036 -7.28082798 14.34023315 -7 12 C-6.34 12 -5.68 12 -5 12 C-5 10.68 -5 9.36 -5 8 C-4.34 8 -3.68 8 -3 8 C-2.690625 6.865625 -2.38125 5.73125 -2.0625 4.5625 C-1 1 -1 1 0 0 Z " fill="#815B00" transform="translate(323,159)"/>
<path d="M0 0 C0.99 0.495 0.99 0.495 2 1 C2 7.27 2 13.54 2 20 C5.22988054 19.88582748 8.45843595 19.75907878 11.6875 19.625 C13.05551758 19.57859375 13.05551758 19.57859375 14.45117188 19.53125 C19.14051204 19.32662425 22.65872012 18.85227942 27 17 C29.62805842 16.71132208 32.17910831 16.49595962 34.8125 16.375 C35.85180664 16.31699219 35.85180664 16.31699219 36.91210938 16.2578125 C38.60767015 16.16426432 40.30379712 16.08107636 42 16 C38.90191416 18.06539056 36.97590519 18.35968251 33.328125 18.65625 C30.85026855 18.94981172 30.85026855 18.94981172 28.01171875 20.0234375 C22.64936973 21.61302689 17.10127925 21.21046484 11.5625 21.125 C10.44939453 21.11597656 9.33628906 21.10695312 8.18945312 21.09765625 C5.45954191 21.07422354 2.72974231 21.03835703 0 21 C0 14.07 0 7.14 0 0 Z " fill="#926700" transform="translate(150,201)"/>
<path d="M0 0 C0.86230983 3.02201192 1.16976982 5.81205978 1.28125 8.94921875 C1.31863281 9.87927734 1.35601562 10.80933594 1.39453125 11.76757812 C1.46526649 13.72589623 1.53557397 15.68422984 1.60546875 17.64257812 C1.64285156 18.56876953 1.68023437 19.49496094 1.71875 20.44921875 C1.74904297 21.29830811 1.77933594 22.14739746 1.81054688 23.0222168 C1.78832428 25.00047735 1.78832428 25.00047735 3 26 C3.21158966 28.46266855 3.37617784 30.90772884 3.5 33.375 C3.75276441 38.76355137 3.75276441 38.76355137 5 44 C5.22560676 46.39254576 5.40848595 48.78928123 5.5625 51.1875 C5.64628906 52.45980469 5.73007813 53.73210937 5.81640625 55.04296875 C5.87699219 56.01878906 5.93757812 56.99460937 6 58 C5.34 58 4.68 58 4 58 C3.93941406 57.08476562 3.87882813 56.16953125 3.81640625 55.2265625 C3.73261719 54.03804688 3.64882812 52.84953125 3.5625 51.625 C3.48128906 50.44164062 3.40007812 49.25828125 3.31640625 48.0390625 C3.18915064 45.08481099 3.18915064 45.08481099 2 43 C1.92883618 40.62597499 1.91590915 38.24999323 1.9375 35.875 C1.94652344 34.59367187 1.95554688 33.31234375 1.96484375 31.9921875 C1.97644531 31.00476563 1.98804688 30.01734375 2 29 C1.34 29 0.68 29 0 29 C-0.06058594 27.86820312 -0.12117187 26.73640625 -0.18359375 25.5703125 C-0.26799917 24.08852855 -0.35264717 22.6067584 -0.4375 21.125 C-0.49647461 20.00544922 -0.49647461 20.00544922 -0.55664062 18.86328125 C-0.71573624 14.80013136 -0.71573624 14.80013136 -2 11 C-2.13415472 8.3276379 -2.04318541 5.67749512 -2 3 C-1.34 3 -0.68 3 0 3 C0 2.01 0 1.02 0 0 Z " fill="#725100" transform="translate(203,361)"/>
<path d="M0 0 C0.33 0 0.66 0 1 0 C4.4266126 9.29085612 4.08071141 19.32562275 4.125 29.125 C4.12967285 29.84727783 4.1343457 30.56955566 4.13916016 31.3137207 C4.12882564 34.68237474 4.05097127 37.78035785 3 41 C-2.65611463 41.56561146 -6.22642128 39.71391278 -11 37 C-8.18515955 35.59257978 -6.43063887 36.33347836 -3.375 36.9375 C-1.87066406 37.22947266 -1.87066406 37.22947266 -0.3359375 37.52734375 C0.82035156 37.76130859 0.82035156 37.76130859 2 38 C2.61983169 22.79689211 2.61983169 22.79689211 0 8 C-0.12781786 5.32605036 -0.04391871 2.67904143 0 0 Z " fill="#513900" transform="translate(173,114)"/>
<path d="M0 0 C0 0.66 0 1.32 0 2 C0.99 2.33 1.98 2.66 3 3 C0.38073273 4.30963364 -1.3992026 3.92345749 -4.3125 3.75 C-8.27312925 3.73442741 -9.67652833 3.79944756 -13.125 5.9375 C-15.57103384 9.9326886 -15.88932461 13.38181789 -16 18 C-15.34 18.33 -14.68 18.66 -14 19 C-14.99 19 -15.98 19 -17 19 C-17.91066376 13.71815021 -18.52339403 9.93707528 -16 5 C-11.16053147 -0.56538881 -7.1387124 -0.63486573 0 0 Z " fill="#8C6200" transform="translate(300,74)"/>
<path d="M0 0 C0.66 0 1.32 0 2 0 C2 19.8 2 39.6 2 60 C1.67 60 1.34 60 1 60 C0.67 42.18 0.34 24.36 0 6 C-0.99 7.32 -1.98 8.64 -3 10 C-3.2295711 6.63295715 -3.33943529 4.58629732 -1.625 1.625 C-1.08875 1.08875 -0.5525 0.5525 0 0 Z " fill="#C58B00" transform="translate(273,322)"/>
<path d="M0 0 C0.66 0.33 1.32 0.66 2 1 C1.5661499 1.38639648 1.1322998 1.77279297 0.68530273 2.17089844 C-1.88279728 4.73788495 -3.78334921 6.75229417 -4.41748047 10.40429688 C-4.40176062 13.05131733 -4.2164874 15.61789818 -3.9375 18.25 C-3.87111328 19.1471875 -3.80472656 20.044375 -3.73632812 20.96875 C-3.45161009 24.52373403 -3.13206752 27.60379745 -2 31 C-1.85596652 32.33363703 -1.75409577 33.67218046 -1.68359375 35.01171875 C-1.64169922 35.76904297 -1.59980469 36.52636719 -1.55664062 37.30664062 C-1.51732422 38.09232422 -1.47800781 38.87800781 -1.4375 39.6875 C-1.39431641 40.48478516 -1.35113281 41.28207031 -1.30664062 42.10351562 C-1.20072632 44.06881447 -1.09987449 46.03438496 -1 48 C-1.66 48 -2.32 48 -3 48 C-3.06058594 46.86820312 -3.12117187 45.73640625 -3.18359375 44.5703125 C-3.26799917 43.08852855 -3.35264717 41.6067584 -3.4375 40.125 C-3.47681641 39.37863281 -3.51613281 38.63226563 -3.55664062 37.86328125 C-3.71573624 33.80013136 -3.71573624 33.80013136 -5 30 C-5.42080113 26.24162852 -5.56130337 22.46373387 -5.75 18.6875 C-5.81832031 17.64142578 -5.88664063 16.59535156 -5.95703125 15.51757812 C-6.03244141 13.99874023 -6.03244141 13.99874023 -6.109375 12.44921875 C-6.16061523 11.52455811 -6.21185547 10.59989746 -6.26464844 9.6472168 C-5.93900026 6.38983377 -5.00198167 4.57227308 -3 2 C-2.01 2 -1.02 2 0 2 C0 1.34 0 0.68 0 0 Z " fill="#553C00" transform="translate(244,357)"/>
<path d="M0 0 C1.23521864 2.47043729 0.9042703 3.54873934 0.5 6.25 C0.04496554 10.07474909 -0.24006622 13.27980135 1 17 C4.31550186 20.0140926 7.55883034 20.51843772 12.00390625 20.3671875 C15.24663603 19.77067752 17.45145646 18.00242707 20 16 C20.66 15.67 21.32 15.34 22 15 C21.03441599 17.54563057 20.06131195 18.94635204 18 20.75 C13.20108246 22.74954898 7.92681284 23.1776525 3.01953125 21.203125 C1.375 20.1875 1.375 20.1875 -1 18 C-1 17.01 -1 16.02 -1 15 C-1.66 15 -2.32 15 -3 15 C-3.55353075 4.44191344 -3.55353075 4.44191344 0 0 Z " fill="#755200" transform="translate(156,78)"/>
<path d="M0 0 C0.66 0 1.32 0 2 0 C1.67 2.31 1.34 4.62 1 7 C0.34 7 -0.32 7 -1 7 C-2.07054511 20.52472039 -2.07054511 20.52472039 -1 34 C-1.66 34 -2.32 34 -3 34 C-7.94371661 22.9898901 -3.89745956 10.79296493 0 0 Z " fill="#795500" transform="translate(268,332)"/>
<path d="M0 0 C5.75 0.75 5.75 0.75 8 3 C10.63395184 9.95943239 11.43279438 16.61043675 11 24 C10.67 24 10.34 24 10 24 C8.68 17.4 7.36 10.8 6 4 C3.69 3.34 1.38 2.68 -1 2 C-0.67 1.34 -0.34 0.68 0 0 Z " fill="#3F2C00" transform="translate(229,89)"/>
<path d="M0 0 C0.99 0.33 1.98 0.66 3 1 C3 5.95 3 10.9 3 16 C2.34 16 1.68 16 1 16 C1.02320313 17.05960937 1.04640625 18.11921875 1.0703125 19.2109375 C1.08906944 20.5989513 1.10726972 21.9869727 1.125 23.375 C1.14175781 24.07367188 1.15851563 24.77234375 1.17578125 25.4921875 C1.19344267 27.32897486 1.10303261 29.16601963 1 31 C0.34 31.66 -0.32 32.32 -1 33 C-0.67 26.07 -0.34 19.14 0 12 C0.66 12 1.32 12 2 12 C2 8.7 2 5.4 2 2 C1.34 2 0.68 2 0 2 C0 1.34 0 0.68 0 0 Z " fill="#604400" transform="translate(232,361)"/>
<path d="M0 0 C0.99 0.495 0.99 0.495 2 1 C2 2.32 2 3.64 2 5 C2.66 5 3.32 5 4 5 C5.77401632 9.62974991 6.39641621 13.96044843 6.625 18.875 C6.66367188 19.56335938 6.70234375 20.25171875 6.7421875 20.9609375 C6.83548166 22.64023246 6.91878238 24.32007767 7 26 C4.77958108 22.66937161 4.28283073 20.28064464 3.5 16.375 C3.24605469 15.13234375 2.99210938 13.8896875 2.73046875 12.609375 C2.48941406 11.41828125 2.24835938 10.2271875 2 9 C1.60932339 7.20720183 1.2144626 5.41530152 0.8125 3.625 C0.544375 2.42875 0.27625 1.2325 0 0 Z " fill="#4F3700" transform="translate(143,172)"/>
<path d="M0 0 C0.79921875 0.01804687 1.5984375 0.03609375 2.421875 0.0546875 C3.02515625 0.07789062 3.6284375 0.10109375 4.25 0.125 C4.25 0.785 4.25 1.445 4.25 2.125 C5.24 2.455 6.23 2.785 7.25 3.125 C4.18466836 4.65766582 0.98245728 4.22776471 -2.375 4.1875 C-3.08140625 4.18298828 -3.7878125 4.17847656 -4.515625 4.17382812 C-6.26045275 4.16203875 -8.005237 4.14410324 -9.75 4.125 C-7.74279909 0.11059818 -4.14831196 -0.12200918 0 0 Z " fill="#8B6200" transform="translate(166.75,73.875)"/>
<path d="M0 0 C1.96875 1.16796875 1.96875 1.16796875 4 3 C4.91799914 7.29974596 4.88448386 11.9946616 3.09375 16.0546875 C2 17.6875 2 17.6875 0 20 C-0.66 19.67 -1.32 19.34 -2 19 C-1.505 18.360625 -1.01 17.72125 -0.5 17.0625 C2.13622165 11.68021413 1.47715791 5.72398691 0 0 Z " fill="#755200" transform="translate(243,60)"/>
<path d="M0 0 C0.33 0 0.66 0 1 0 C1.28936772 7.70039658 1.39592601 15.40611099 -3 22 C-3.09765625 15.84765625 -3.09765625 15.84765625 -3 14 C-2.67 13.67 -2.34 13.34 -2 13 C-1.60333773 10.81980521 -1.25684763 8.6303537 -0.9375 6.4375 C-0.76089844 5.23996094 -0.58429688 4.04242188 -0.40234375 2.80859375 C-0.26957031 1.88175781 -0.13679688 0.95492187 0 0 Z " fill="#6E4E00" transform="translate(289,108)"/>
<path d="M0 0 C-0.71285156 0.12117187 -1.42570312 0.24234375 -2.16015625 0.3671875 C-8.61829593 1.48360143 -8.61829593 1.48360143 -14.9375 3.1875 C-17.88914691 3.97059 -19.2119662 4.11521352 -22 3 C-15.26543797 -0.44210948 -7.41835371 -2.29326157 0 0 Z " fill="#533A00" transform="translate(192,218)"/>
<path d="M0 0 C1.23324367 2.46648733 0.93077307 3.60728425 0.5625 6.3125 C0.15243576 9.57198498 -0.10618385 12.70830052 0 16 C-0.99 15.67 -1.98 15.34 -3 15 C-3.55353075 4.44191344 -3.55353075 4.44191344 0 0 Z " fill="#876000" transform="translate(156,78)"/>
<path d="M0 0 C0 0.99 0 1.98 0 3 C-1.45381897 3.69699552 -2.91322953 4.38233866 -4.375 5.0625 C-5.18710937 5.44535156 -5.99921875 5.82820312 -6.8359375 6.22265625 C-7.55007813 6.47917969 -8.26421875 6.73570312 -9 7 C-9.66 6.67 -10.32 6.34 -11 6 C-9.68 5.67 -8.36 5.34 -7 5 C-7 4.34 -7 3.68 -7 3 C-2.61538462 0 -2.61538462 0 0 0 Z " fill="#7B5700" transform="translate(324,136)"/>
<path d="M0 0 C0.33 0 0.66 0 1 0 C2.97094808 4.92737019 3.1799928 8.78020872 3 14 C-0.26566506 9.10150241 -0.09311493 5.68001091 0 0 Z " fill="#725100" transform="translate(173,114)"/>
<path d="M0 0 C0.66 0.33 1.32 0.66 2 1 C0.68 4.3 -0.64 7.6 -2 11 C-2.66 11 -3.32 11 -4 11 C-2.95902388 7.13351728 -1.96301592 3.50538557 0 0 Z " fill="#5D4100" transform="translate(328,148)"/>
<path d="M0 0 C3.125 -0.1875 3.125 -0.1875 6 0 C1.25 4 1.25 4 -1 4 C-1 5.65 -1 7.3 -1 9 C-1.33 9 -1.66 9 -2 9 C-2.25 3.375 -2.25 3.375 0 0 Z " fill="#AC7900" transform="translate(228,91)"/>
<path d="M0 0 C0.66 0.33 1.32 0.66 2 1 C0.02 5.455 0.02 5.455 -2 10 C-2.33 10 -2.66 10 -3 10 C-3.36923077 4.58461538 -3.36923077 4.58461538 -1.5 1.625 C-1.005 1.08875 -0.51 0.5525 0 0 Z " fill="#906600" transform="translate(273,322)"/>
<path d="M0 0 C0.66 0.33 1.32 0.66 2 1 C0.35 2.98 -1.3 4.96 -3 7 C-3.33 5.68 -3.66 4.36 -4 3 C-2.68 2.67 -1.36 2.34 0 2 C0 1.34 0 0.68 0 0 Z " fill="#322300" transform="translate(244,357)"/>
</svg>
