<?xml version="1.0" encoding="UTF-8"?>
<svg version="1.1" xmlns="http://www.w3.org/2000/svg" width="480" height="480">
<path d="M0 0 C158.4 0 316.8 0 480 0 C480 158.4 480 316.8 480 480 C321.6 480 163.2 480 0 480 C0 321.6 0 163.2 0 0 Z " fill="#000000" transform="translate(0,0)"/>
<path d="M0 0 C12.17115561 10.27745617 19.70730528 23.38153678 21.34375 39.35546875 C21.77938623 54.54828219 16.4995149 69.07841548 6.5 80.5625 C2.94125787 84.25507517 -0.62617376 87.3221472 -5 90 C-5.66 90 -6.32 90 -7 90 C-8.79375597 78.2708178 -9.25216729 66.85295152 -9.125 55 C-9.11493256 53.33854717 -9.10581347 51.67708831 -9.09765625 50.015625 C-9.07598111 46.01026319 -9.04166743 42.00520165 -9 38 C-11.36685039 38.89203536 -11.36685039 38.89203536 -12.0703125 42.09765625 C-12.43367854 43.4160744 -12.78458289 44.73797084 -13.125 46.0625 C-13.30240723 46.74481689 -13.47981445 47.42713379 -13.66259766 48.13012695 C-15.80389517 56.08395109 -15.80389517 56.08395109 -13.97949219 63.81787109 C-12.66489053 66.74656242 -12.83756186 69.02696679 -12.953125 72.2265625 C-12.99566406 73.4228125 -13.03820312 74.6190625 -13.08203125 75.8515625 C-13.13746094 77.09679687 -13.19289063 78.34203125 -13.25 79.625 C-13.30994141 81.50445312 -13.30994141 81.50445312 -13.37109375 83.421875 C-13.74355842 92.74355842 -13.74355842 92.74355842 -16 95 C-20.15248286 96.4102772 -23.6377836 97.10511365 -28 97 C-29.35798878 84.61918735 -30.3172599 72.4612638 -30 60 C-28.02 59.505 -28.02 59.505 -26 59 C-25.67 52.07 -25.34 45.14 -25 38 C-25.66 38 -26.32 38 -27 38 C-27 42.95 -27 47.9 -27 53 C-27.66 53 -28.32 53 -29 53 C-29 48.05 -29 43.1 -29 38 C-29.66 38 -30.32 38 -31 38 C-31 42.95 -31 47.9 -31 53 C-31.66 53 -32.32 53 -33 53 C-33 48.05 -33 43.1 -33 38 C-33.66 38 -34.32 38 -35 38 C-35 42.95 -35 47.9 -35 53 C-35.66 53 -36.32 53 -37 53 C-37 48.05 -37 43.1 -37 38 C-37.66 38 -38.32 38 -39 38 C-38.96681525 40.87802321 -38.89946365 43.7485099 -38.8125 46.625 C-38.80669922 47.43324219 -38.80089844 48.24148438 -38.79492188 49.07421875 C-38.62867596 53.61827388 -38.45434127 55.45479047 -35.44140625 59.0703125 C-32.72509738 62.32988314 -32.53017078 63.89929353 -32.86523438 68.06640625 C-32.95095703 68.78699219 -33.03667969 69.50757813 -33.125 70.25 C-33.19267578 70.99636719 -33.26035156 71.74273437 -33.33007812 72.51171875 C-33.46763608 73.99528775 -33.61675268 75.47783783 -33.77832031 76.95898438 C-33.9712689 78.73547139 -34.12573915 80.51605484 -34.2734375 82.296875 C-34.82018927 88.82018927 -34.82018927 88.82018927 -36 90 C-36.36760731 92.32817964 -36.70241581 94.6618385 -37 97 C-38.2375 97.04125 -39.475 97.0825 -40.75 97.125 C-41.44609375 97.14820313 -42.1421875 97.17140625 -42.859375 97.1953125 C-45.40564193 96.96298888 -46.85313764 96.3885193 -49 95 C-49.63769531 93.17504883 -49.63769531 93.17504883 -49.828125 90.95703125 C-49.90562988 90.13686523 -49.98313477 89.31669922 -50.06298828 88.47167969 C-50.12470215 87.59415039 -50.18641602 86.71662109 -50.25 85.8125 C-50.32589355 84.92079102 -50.40178711 84.02908203 -50.47998047 83.11035156 C-51.08793281 75.39859323 -51.21084933 67.73114207 -51 60 C-49.02 59.505 -49.02 59.505 -47 59 C-46.41252912 49.54050408 -46.41252912 49.54050408 -50 41 C-50.66 40.34 -51.32 39.68 -52 39 C-54.0480428 39.0950739 -54.0480428 39.0950739 -56 40 C-58.19470572 43.29205858 -58.44974004 44.99588679 -58.8125 48.875 C-58.97685547 50.41800781 -58.97685547 50.41800781 -59.14453125 51.9921875 C-58.93064013 56.44343504 -57.08727327 58.91272673 -54 62 C-53.99100862 64.65245743 -54.09768748 67.17668461 -54.3125 69.8125 C-54.36591553 70.56845459 -54.41933105 71.32440918 -54.47436523 72.10327148 C-54.6392775 74.40308322 -54.81858703 76.70143789 -55 79 C-55.09966133 80.33848951 -55.19866638 81.67702812 -55.296875 83.015625 C-55.52122356 86.01133814 -55.75526444 89.00589477 -56 92 C-66.43031702 89.00260846 -75.41948008 80.42635768 -80.65625 71.02734375 C-88.03378068 55.85639217 -90.55538517 41.20320676 -85 25 C-81.51237508 16.21386798 -76.70024225 9.6172304 -70 3 C-69.44699219 2.42507812 -68.89398438 1.85015625 -68.32421875 1.2578125 C-49.93682691 -16.35393254 -19.35393987 -14.72582381 0 0 Z " fill="#030200" transform="translate(278,210)"/>
<path d="M0 0 C1.67542976 0.28604898 3.34385343 0.61781233 5 1 C5.25394531 2.21816406 5.50789063 3.43632813 5.76953125 4.69140625 C6.11681325 6.31518425 6.46449055 7.93887775 6.8125 9.5625 C6.97814453 10.36236328 7.14378906 11.16222656 7.31445312 11.98632812 C8.39313513 16.97268834 9.83484942 21.37811697 12 26 C14.31273686 26.37727689 14.31273686 26.37727689 17 26 C19.36069706 24.1026099 19.36069706 24.1026099 21.4375 21.5 C22.59378906 20.14261719 22.59378906 20.14261719 23.7734375 18.7578125 C26.61383538 15.23970565 29.37660848 11.68303594 32 8 C33.32 8.33 34.64 8.66 36 9 C36.02688151 10.64574566 36.04634123 12.29161413 36.0625 13.9375 C36.07410156 14.85402344 36.08570313 15.77054688 36.09765625 16.71484375 C36 19 36 19 35 20 C34.76298761 22.85877909 34.57780818 25.69883297 34.4375 28.5625 C34.37272461 29.77196289 34.37272461 29.77196289 34.30664062 31.00585938 C34.20024738 33.00368805 34.09959112 35.0018207 34 37 C40.08289653 35.75361586 44.64316988 33.80153796 49.875 30.5 C50.53757812 30.09652344 51.20015625 29.69304687 51.8828125 29.27734375 C54.48532825 27.67457491 56.83173391 26.16826609 59 24 C60.32 24 61.64 24 63 24 C63.3988474 29.01513676 62.48150742 31.46428629 59.625 35.5625 C55.74501538 41.19087275 53.78512251 46.41736076 52 53 C51.649375 54.134375 51.29875 55.26875 50.9375 56.4375 C49.25611988 63.0968244 49.31502197 70.16899725 49 77 C47.1670179 77.05498946 45.33353155 77.09323089 43.5 77.125 C42.4790625 77.14820313 41.458125 77.17140625 40.40625 77.1953125 C37 77 37 77 33.37988281 76.0065918 C28.73260947 74.81192067 24.29489714 74.69401176 19.515625 74.69921875 C18.61994812 74.69493362 17.72427124 74.6906485 16.80145264 74.68623352 C14.90882201 74.68051551 13.01616941 74.67997121 11.12353516 74.68432617 C8.29939651 74.68744544 5.47635012 74.66413788 2.65234375 74.63867188 C-8.35577903 74.60200543 -18.85422061 75.443246 -29.69921875 77.33642578 C-35.14590414 78.25755974 -40.48451473 78.30267907 -46 78 C-46.01417969 76.89785156 -46.02835938 75.79570312 -46.04296875 74.66015625 C-46.43066102 59.7522289 -48.81567827 41.18432173 -60 30 C-60.04063832 28.33382885 -60.042721 26.66611905 -60 25 C-58.296875 24.3046875 -58.296875 24.3046875 -56 24 C-53.703125 25.2578125 -53.703125 25.2578125 -51.25 27.125 C-50.37214844 27.76953125 -49.49429688 28.4140625 -48.58984375 29.078125 C-47.73519531 29.71234375 -46.88054687 30.3465625 -46 31 C-40.96292001 34.56830711 -37.22130769 36.61116827 -31 37 C-30.76502417 30.25097213 -31.20851835 24.07802246 -32.5546875 17.4609375 C-33.07073183 14.60911358 -33.15630784 11.89169511 -33 9 C-30.25 8.68359375 -30.25 8.68359375 -27 9 C-24.875 11.16015625 -24.875 11.16015625 -23 14.0625 C-21.98679687 15.55910156 -21.98679687 15.55910156 -20.953125 17.0859375 C-20.30859375 18.04757813 -19.6640625 19.00921875 -19 20 C-17.1033203 22.54920712 -15.23214223 24.71712727 -13 27 C-11.68 27 -10.36 27 -9 27 C-5.46115186 19.36280203 -3.13395528 12.01493651 -1.578125 3.73828125 C-1 1 -1 1 0 0 Z " fill="#CD9100" transform="translate(241,111)"/>
<path d="M0 0 C13.34883316 10.44546195 23.91820264 23.99308678 26.7109375 41.1328125 C28.53139097 59.1897429 25.47433483 74.87826887 15 90 C14.55140625 90.65097656 14.1028125 91.30195313 13.640625 91.97265625 C4.98163999 103.15293396 -9.36801227 110.94785817 -23 114 C-42.97818983 115.8398851 -59.11412284 113.79440588 -75 101 C-76.010625 100.278125 -77.02125 99.55625 -78.0625 98.8125 C-86.27176846 91.67603366 -91.5306932 82.14942302 -95 72 C-95.31839844 71.14148438 -95.63679687 70.28296875 -95.96484375 69.3984375 C-100.85711266 54.47363557 -98.3974167 37.95965556 -92 23.9375 C-83.87890113 8.53660002 -70.40876327 -2.07546108 -54.16015625 -8.04296875 C-36.37164729 -13.24043433 -15.50011791 -10.15089244 0 0 Z M-76.5546875 16.03515625 C-86.79818188 28.4549841 -91.03145013 42.04171493 -90 58 C-88.02023251 71.73123137 -81.39833502 84.7806888 -71 94 C-65.03358779 98.84808818 -65.03358779 98.84808818 -58 101 C-57.6615815 97.3129484 -57.33018392 93.62529741 -57 89.9375 C-56.90460938 88.89916016 -56.80921875 87.86082031 -56.7109375 86.79101562 C-55.95255652 78.90479569 -55.95255652 78.90479569 -56 71 C-56.639375 70.38125 -57.27875 69.7625 -57.9375 69.125 C-60.67865936 66.3007752 -60.7710627 64.15470789 -61.04296875 60.31640625 C-60.95435162 55.5391374 -59.62009321 51.93013982 -57 48 C-54.25362183 48.37881078 -53.19950942 48.77832287 -51.3125 50.875 C-48.94598268 54.70650423 -48.89012321 57.78145887 -48.9375 62.1875 C-48.94652344 63.27417969 -48.95554688 64.36085938 -48.96484375 65.48046875 C-48.97644531 66.31191406 -48.98804688 67.14335937 -49 68 C-50.98 68.495 -50.98 68.495 -53 69 C-53.2358522 77.64791404 -52.98366267 86.19235306 -52.25 94.8125 C-52.18828613 95.6900293 -52.12657227 96.56755859 -52.06298828 97.47167969 C-51.9854834 98.2918457 -51.90797852 99.11201172 -51.828125 99.95703125 C-51.7338623 101.05494995 -51.7338623 101.05494995 -51.63769531 102.17504883 C-51.14495953 104.18440827 -51.14495953 104.18440827 -49.08203125 105.24047852 C-46.81559169 106.06727184 -45.15179894 106.20505996 -42.75 106.125 C-41.5125 106.08375 -40.275 106.0425 -39 106 C-38.855625 104.865625 -38.71125 103.73125 -38.5625 102.5625 C-38 99 -38 99 -37 98 C-36.7734229 96.59808908 -36.60569154 95.1865381 -36.46484375 93.7734375 C-36.37783203 92.90589844 -36.29082031 92.03835938 -36.20117188 91.14453125 C-36.11416016 90.23058594 -36.02714844 89.31664062 -35.9375 88.375 C-35.84662109 87.48425781 -35.75574219 86.59351563 -35.66210938 85.67578125 C-35.41168515 83.11881809 -35.20263037 80.56112356 -35 78 C-34.87753906 76.75476563 -34.75507813 75.50953125 -34.62890625 74.2265625 C-35.05762699 70.49894848 -36.32659337 69.34036074 -38.83349609 66.67871094 C-41.11686652 63.39272202 -40.78467879 59.50142177 -40.8125 55.625 C-40.83763672 54.79355469 -40.86277344 53.96210938 -40.88867188 53.10546875 C-40.94713896 51.07081407 -40.9765315 49.03535926 -41 47 C-40.34 47 -39.68 47 -39 47 C-39 51.95 -39 56.9 -39 62 C-38.34 62 -37.68 62 -37 62 C-37 57.05 -37 52.1 -37 47 C-36.34 47 -35.68 47 -35 47 C-35 51.95 -35 56.9 -35 62 C-34.34 62 -33.68 62 -33 62 C-33 57.05 -33 52.1 -33 47 C-32.34 47 -31.68 47 -31 47 C-31 51.95 -31 56.9 -31 62 C-30.34 62 -29.68 62 -29 62 C-29 57.05 -29 52.1 -29 47 C-28.34 47 -27.68 47 -27 47 C-27.33 53.93 -27.66 60.86 -28 68 C-29.98 68.495 -29.98 68.495 -32 69 C-32.3172599 81.4612638 -31.35798878 93.61918735 -30 106 C-28.11087891 105.7834375 -28.11087891 105.7834375 -26.18359375 105.5625 C-25.47517334 105.48128906 -24.76675293 105.40007812 -24.03686523 105.31640625 C-21.11364411 104.86231365 -18.13847818 104.13847818 -16 102 C-15.58514405 97.5750123 -15.48266993 93.12780061 -15.3125 88.6875 C-15.25255859 87.43775391 -15.19261719 86.18800781 -15.13085938 84.90039062 C-15.08380859 83.69962891 -15.03675781 82.49886719 -14.98828125 81.26171875 C-14.94227783 80.15787842 -14.89627441 79.05403809 -14.84887695 77.91674805 C-15.00236704 74.954315 -15.57223611 73.53480068 -17 71 C-17.63535379 65.38770818 -16.53702997 60.49323654 -15.125 55.0625 C-14.86468994 54.04965942 -14.86468994 54.04965942 -14.59912109 53.01635742 C-14.13280906 51.32441548 -13.5731533 49.65879768 -13 48 C-12.34 47.67 -11.68 47.34 -11 47 C-11.01047363 48.00675781 -11.02094727 49.01351562 -11.03173828 50.05078125 C-11.06856413 53.86780082 -11.09112238 57.68480556 -11.10986328 61.50195312 C-11.11978101 63.13869893 -11.13331937 64.77542772 -11.15087891 66.41210938 C-11.26612634 77.44874622 -10.66920267 88.08525872 -9 99 C1.24917984 95.12005991 8.0760225 86.53472487 13 77 C19.35415198 62.7237884 21.12800851 49.52338212 16.31640625 34.41796875 C10.99849651 20.61033961 1.50923673 9.33186756 -12 3 C-34.95148473 -6.93422473 -59.10005674 -2.51356944 -76.5546875 16.03515625 Z " fill="#CA8F00" transform="translate(280,201)"/>
<path d="M0 0 C1.32 0 2.64 0 4 0 C3.74730935 4.29574113 3.4431794 6.47518229 0.625 9.8125 C-3.80488401 13.50407001 -5.94032798 14.25067725 -11.66180134 14.25726891 C-12.68745172 14.26252802 -12.68745172 14.26252802 -13.73382232 14.26789337 C-16.04189162 14.27725166 -18.34971104 14.27227277 -20.65779114 14.26742554 C-22.3225256 14.27115958 -23.98725831 14.27576011 -25.65198821 14.28115618 C-30.23988227 14.29343216 -34.82770367 14.29312033 -39.41561043 14.29076743 C-44.35847045 14.29036042 -49.3013068 14.30138735 -54.24415588 14.31088257 C-63.933313 14.3275189 -73.62244578 14.33299331 -83.31161598 14.33410732 C-91.18525797 14.33505659 -99.05889191 14.33916078 -106.93253136 14.34550858 C-129.24077849 14.36312845 -151.54900636 14.37234632 -173.8572605 14.37084763 C-175.662471 14.37072776 -175.662471 14.37072776 -177.50415039 14.37060547 C-178.70908839 14.37052371 -179.91402639 14.37044195 -181.15547767 14.37035771 C-200.6866431 14.36954468 -220.21773145 14.38868474 -239.74887458 14.4168822 C-259.78864395 14.44558637 -279.82837569 14.45942385 -299.86816615 14.45769465 C-311.12486473 14.45702988 -322.38148251 14.46256028 -333.63816261 14.48405075 C-343.22218663 14.50223015 -352.80609322 14.50663664 -362.39012698 14.4930319 C-367.28199205 14.48648574 -372.17363162 14.48644429 -377.06547546 14.5037384 C-381.54198135 14.51940167 -386.01808167 14.51667493 -390.49457725 14.49917014 C-392.11571593 14.49608529 -393.73688438 14.49978819 -395.35798798 14.51089029 C-397.559377 14.52497029 -399.75933536 14.51445951 -401.96067524 14.49777794 C-403.18402681 14.49821267 -404.40737837 14.49864741 -405.6678012 14.49909532 C-410.47428629 13.77918203 -413.53894696 11.5097548 -416.875 8.0625 C-418.2451313 5.55059261 -418.23497727 3.81972723 -418 1 C-416.68 1 -415.36 1 -414 1 C-413.5875 1.94875 -413.175 2.8975 -412.75 3.875 C-410.87594933 7.22151906 -410.46127123 7.77120229 -407 9 C-403.84566159 9.30056439 -403.84566159 9.30056439 -400.274827 9.25168228 C-399.59636013 9.25458916 -398.91789327 9.25749604 -398.2188668 9.26049101 C-395.93484869 9.26781682 -393.65109705 9.26083573 -391.36708069 9.25396729 C-389.71727038 9.2562707 -388.0674611 9.25944642 -386.41765398 9.26342177 C-381.87568715 9.27179486 -377.33380404 9.26763311 -372.79183686 9.26144934 C-367.89673608 9.25693607 -363.00165001 9.26390303 -358.10655212 9.26940918 C-348.51344684 9.27831708 -338.9203728 9.2763749 -329.32726628 9.2705839 C-321.53230188 9.26607264 -313.73734624 9.26545218 -305.94238091 9.26763153 C-304.83422198 9.267938 -303.72606306 9.26824446 -302.58432357 9.26856022 C-300.33331836 9.26919965 -298.08231315 9.26984807 -295.83130794 9.2705054 C-274.70763332 9.27621285 -253.58397603 9.26964443 -232.46030425 9.25890467 C-214.32549688 9.24997002 -196.19071511 9.25151969 -178.0559082 9.26074219 C-157.01091558 9.27143961 -135.96593817 9.27566219 -114.9209432 9.26951766 C-112.67777376 9.26888054 -110.43460431 9.2682518 -108.19143486 9.26763153 C-107.08767426 9.26732298 -105.98391367 9.26701443 -104.84670578 9.26669653 C-97.05938627 9.26496791 -89.27207639 9.2678883 -81.48475838 9.27259064 C-71.99700582 9.27819367 -62.50928636 9.27669526 -53.02153761 9.26602915 C-48.17845959 9.26076446 -43.3354368 9.25872923 -38.49235916 9.26532745 C-34.06168912 9.2712726 -29.6311257 9.26803556 -25.20046537 9.25737235 C-23.59485491 9.25513221 -21.9892355 9.25628831 -20.38363076 9.26112393 C-18.20596273 9.26718097 -16.02866277 9.26099244 -13.85101414 9.25168228 C-12.63997597 9.25135758 -11.42893781 9.25103287 -10.18120152 9.25069833 C-6.97743527 8.99822176 -4.79886595 8.57344693 -2 7 C-0.62032476 3.46485707 -0.62032476 3.46485707 0 0 Z " fill="#BE8700" transform="translate(447,399)"/>
<path d="M0 0 C0.6854553 -0.00350607 1.37091059 -0.00701215 2.07713726 -0.01062447 C4.39094977 -0.0199829 6.70451302 -0.01500382 9.0183363 -0.01015663 C10.68719555 -0.01389067 12.35605306 -0.01849119 14.02490777 -0.02388728 C18.62420336 -0.03616334 23.22342646 -0.03585141 27.82273471 -0.03349853 C32.77786475 -0.03309152 37.73297119 -0.04411842 42.68809032 -0.05361366 C52.4013109 -0.07025004 62.1145072 -0.07572441 71.82774083 -0.07683842 C79.72092896 -0.07778768 87.61410906 -0.08189186 95.50729465 -0.08823967 C117.87087931 -0.10585955 140.23444474 -0.11507741 162.59803639 -0.11357872 C163.80449704 -0.11349881 165.0109577 -0.1134189 166.25397778 -0.11333656 C167.46190639 -0.1132548 168.66983501 -0.11317304 169.91436752 -0.1130888 C189.49403183 -0.11227577 209.07361922 -0.13141585 228.65326128 -0.1596133 C248.74275118 -0.18831739 268.83220355 -0.20215494 288.92171448 -0.20042574 C300.20635866 -0.19976097 311.49092223 -0.20529148 322.77554798 -0.22678185 C332.38336048 -0.24496114 341.99105584 -0.24936782 351.59887806 -0.235763 C356.50289453 -0.22921679 361.40668605 -0.22917556 366.31068134 -0.2464695 C370.79828942 -0.26213254 375.28549294 -0.25940625 379.77309074 -0.24190123 C381.39826708 -0.23881634 383.0234731 -0.24251946 384.64861444 -0.25362138 C386.85544811 -0.26770093 389.06085453 -0.25719093 391.26763916 -0.24050903 C392.49402849 -0.24094377 393.72041782 -0.24137851 394.98397046 -0.24182642 C399.79484165 0.47735992 402.85862778 2.74451694 406.19758129 6.19476891 C407.56771259 8.70667629 407.55755856 10.43754167 407.32258129 13.25726891 C406.00258129 13.25726891 404.68258129 13.25726891 403.32258129 13.25726891 C403.07508129 12.49414391 402.82758129 11.73101891 402.57258129 10.94476891 C401.13635479 7.85688193 400.24882758 6.94890999 397.32258129 5.25726891 C394.15104062 4.80548356 394.15104062 4.80548356 390.54776287 4.87695217 C389.86393128 4.87229225 389.1800997 4.86763233 388.47554594 4.86283121 C386.17318449 4.85083495 383.87140813 4.86029406 381.56904125 4.86958885 C379.90614159 4.86541795 378.24324477 4.85994179 376.58035326 4.85326904 C372.00222248 4.83876377 367.42427094 4.84307494 362.84613013 4.85043585 C357.91218179 4.85515266 352.97827306 4.84267095 348.04433727 4.83241844 C338.37535874 4.81519627 328.70644509 4.81439744 319.0374552 4.81963135 C311.18145597 4.82366765 303.32547596 4.82223592 295.46947765 4.81688309 C294.35270393 4.81613467 293.2359302 4.81538624 292.08531484 4.81461514 C289.8168329 4.81308372 287.54835096 4.81154537 285.27986902 4.81000017 C263.99264461 4.79626296 242.70545692 4.80172158 221.41823334 4.81318539 C201.92780939 4.82312078 182.43748033 4.81017395 162.94707102 4.78625119 C142.95021573 4.76189108 122.9534047 4.7522446 102.95653486 4.75890392 C91.7233943 4.7624028 80.49032676 4.76012003 69.25719738 4.74265289 C59.69545864 4.72796954 50.13384435 4.72724473 40.57210815 4.7447238 C35.69061451 4.75326785 30.80934355 4.75530073 25.92786121 4.74007225 C21.46321122 4.72631616 16.99897657 4.7308702 12.53435117 4.75031149 C10.91529982 4.75409988 9.29621592 4.75106866 7.67719334 4.74069984 C5.48342132 4.72764414 3.29110734 4.7390084 1.09739971 4.75669765 C-0.12313146 4.75680499 -1.34366263 4.75691233 -2.6011796 4.75702292 C-6.27540823 5.35451163 -7.43595881 6.34495081 -9.67741871 9.25726891 C-10.46468651 11.39546551 -10.46468651 11.39546551 -10.67741871 13.25726891 C-12.32741871 13.25726891 -13.97741871 13.25726891 -15.67741871 13.25726891 C-15.40129188 9.29945105 -14.93688523 7.55770382 -12.30241871 4.50726891 C-7.89497055 0.72945619 -5.74931729 0.00660732 0 0 Z " fill="#D19400" transform="translate(43.67741870880127,341.74273109436035)"/>
<path d="M0 0 C2.51625 -0.0825 5.0325 -0.165 7.625 -0.25 C8.79603271 -0.30462402 8.79603271 -0.30462402 9.99072266 -0.36035156 C15.10756939 -0.44089091 17.95525116 0.62330277 22 4 C24.48386059 7.72579089 24.3804212 9.58711402 24 14 C21.8 18.6 21.8 18.6 19 20 C19.67097672 24.19360449 21.8558394 27.40334352 24 31 C22.16015625 30.75 22.16015625 30.75 20 30 C18.68359375 28.1875 18.68359375 28.1875 17.4375 26 C15.46393109 23.14418969 14.56969542 22.15087106 11.16796875 21.25 C8.42385774 21.02455314 5.75133361 20.92167022 3 21 C3 24.3 3 27.6 3 31 C2.01 31 1.02 31 0 31 C0 20.77 0 10.54 0 0 Z " fill="#C78D00" transform="translate(75,358)"/>
<path d="M0 0 C3.14799439 1.30025855 4.6372963 2.58893581 6.875 5.125 C8.4991588 9.27562805 8.15204571 12.73201857 7 17 C4.83674266 20.46121174 3.87775207 21.70741598 0 23 C-4.84510801 23.63512652 -7.96415607 23.79341237 -11.9375 20.75 C-15.25302783 16.32929623 -16.6792362 13.66030164 -16 8 C-11.87597989 0.60520531 -8.07822598 -0.91022265 0 0 Z " fill="#040300" transform="translate(122,366)"/>
<path d="M0 0 C1.25103516 -0.05994141 1.25103516 -0.05994141 2.52734375 -0.12109375 C6.3982813 0.73182469 7.757703 2.24184175 10.0625 5.4375 C10.6491442 8.57125197 10.53782561 11.5761532 10.375 14.75 C10.35244141 15.58595703 10.32988281 16.42191406 10.30664062 17.28320312 C10.2480061 19.33541149 10.15833215 21.38669202 10.0625 23.4375 C9.0725 23.4375 8.0825 23.4375 7.0625 23.4375 C6.7325 22.7775 6.4025 22.1175 6.0625 21.4375 C5.0725 22.0975 4.0825 22.7575 3.0625 23.4375 C-1.25375816 24.12110626 -4.8059901 24.18264066 -8.5 21.75 C-10.24164195 18.94822818 -10.58494805 17.67474025 -9.9375 14.4375 C-8.296875 12.296875 -8.296875 12.296875 -5.9375 10.4375 C-2.921875 10.046875 -2.921875 10.046875 0.3125 10.1875 C1.39015625 10.22359375 2.4678125 10.2596875 3.578125 10.296875 C4.80789062 10.36648438 4.80789062 10.36648438 6.0625 10.4375 C5.4025 8.4575 4.7425 6.4775 4.0625 4.4375 C2.62510487 4.41037934 1.18756137 4.39104933 -0.25 4.375 C-1.05050781 4.36339844 -1.85101563 4.35179687 -2.67578125 4.33984375 C-5.10611334 4.34092145 -5.10611334 4.34092145 -7.9375 5.4375 C-8.2675 4.4475 -8.5975 3.4575 -8.9375 2.4375 C-5.88284924 0.68089945 -3.51794594 0.09214959 0 0 Z " fill="#BE8700" transform="translate(172.9375,365.5625)"/>
<path d="M0 0 C3.58552881 1.63687185 4.79315055 2.68972583 7 6 C7 7.98 7 9.96 7 12 C0.73 12 -5.54 12 -12 12 C-9.83333333 17.83333333 -9.83333333 17.83333333 -7 19 C-5.54321351 19.07030823 -4.08331917 19.08430211 -2.625 19.0625 C-1.85414063 19.05347656 -1.08328125 19.04445313 -0.2890625 19.03515625 C0.46632813 19.02355469 1.22171875 19.01195312 2 19 C3.32 19 4.64 19 6 19 C4.625 21 4.625 21 2 23 C-2.81685865 23.84477791 -6.71198631 23.7245077 -11 21.3125 C-13.88940602 17.97162429 -14.81893412 15.41834936 -15.375 11.0625 C-14.89385565 7.13315451 -13.44484357 5.07351763 -11 2 C-7.29361264 -0.47092491 -4.29830496 -0.55407837 0 0 Z " fill="#C38A00" transform="translate(363,366)"/>
<path d="M0 0 C3 2.0625 3 2.0625 5 5 C5.54218777 8.86308787 5.55058839 11.02395694 3.625 14.4375 C2 16 2 16 0 16 C0 16.66 0 17.32 0 18 C-7.87155963 18.60550459 -7.87155963 18.60550459 -11.5625 16.625 C-13.81876368 12.50486632 -13.85940148 8.57840437 -13 4 C-9.63373662 -0.41822068 -5.2519306 -1.20709695 0 0 Z " fill="#C58B00" transform="translate(247,89)"/>
<path d="M0 0 C12.00763359 -0.60644614 12.00763359 -0.60644614 16.375 2.0625 C18 5 18 5 18 8.625 C16.65591398 13.16129032 16.65591398 13.16129032 14 15 C9.36297289 16.5456757 4.87528349 16.05735628 0 16 C0 10.72 0 5.44 0 0 Z " fill="#0C0800" transform="translate(78,361)"/>
<path d="M0 0 C0.99 0 1.98 0 3 0 C3.33 5.61 3.66 11.22 4 17 C5.18078125 15.76121094 6.3615625 14.52242188 7.578125 13.24609375 C9.13475037 11.64258208 10.69207859 10.03975251 12.25 8.4375 C13.02730469 7.61830078 13.80460938 6.79910156 14.60546875 5.95507812 C15.73662109 4.79975586 15.73662109 4.79975586 16.890625 3.62109375 C17.58188477 2.9036499 18.27314453 2.18620605 18.98535156 1.44702148 C19.65018555 0.96950439 20.31501953 0.4919873 21 0 C22.32 0.33 23.64 0.66 25 1 C19.06 6.94 19.06 6.94 13 13 C14.94935046 17.87337615 16.57731466 19.98315049 20.125 23.6875 C25 28.79036827 25 28.79036827 25 31 C23.68 31 22.36 31 21 31 C18.74609375 28.6640625 18.74609375 28.6640625 16.4375 25.625 C13.16824173 21.34137062 13.16824173 21.34137062 9 18 C5.50586395 20.86698342 3.71163126 22.84150148 3.1875 27.3125 C3.125625 28.529375 3.06375 29.74625 3 31 C2.01 31 1.02 31 0 31 C0 20.77 0 10.54 0 0 Z " fill="#C38A00" transform="translate(223,358)"/>
<path d="M0 0 C0.66 0 1.32 0 2 0 C2 4.95 2 9.9 2 15 C2.66 15 3.32 15 4 15 C4 10.05 4 5.1 4 0 C4.66 0 5.32 0 6 0 C6 4.95 6 9.9 6 15 C6.66 15 7.32 15 8 15 C8 10.05 8 5.1 8 0 C8.66 0 9.32 0 10 0 C10 4.95 10 9.9 10 15 C10.66 15 11.32 15 12 15 C12 10.05 12 5.1 12 0 C12.66 0 13.32 0 14 0 C14.08710289 3.10398978 14.14042309 6.20766548 14.1875 9.3125 C14.21263672 10.19357422 14.23777344 11.07464844 14.26367188 11.98242188 C14.27817383 13.25375977 14.27817383 13.25375977 14.29296875 14.55078125 C14.31653442 15.72120972 14.31653442 15.72120972 14.34057617 16.9152832 C13.91319289 19.53135906 13.08579082 20.4137087 11 22 C10.34 22 9.68 22 9 22 C9 27.28 9 32.56 9 38 C8.67 38 8.34 38 8 38 C7.96132812 36.51886719 7.96132812 36.51886719 7.921875 35.0078125 C7.86515625 33.72648437 7.8084375 32.44515625 7.75 31.125 C7.70359375 29.84882813 7.6571875 28.57265625 7.609375 27.2578125 C7.40828125 26.18273437 7.2071875 25.10765625 7 24 C5.16485977 22.72821205 5.16485977 22.72821205 3 22 C0.917783 20.14706083 0.08901069 18.77130107 -0.23193359 15.99023438 C-0.29566425 13.56948927 -0.26124615 11.17038646 -0.1875 8.75 C-0.17396484 7.90953125 -0.16042969 7.0690625 -0.14648438 6.203125 C-0.11123464 4.13514062 -0.0574302 2.06748729 0 0 Z " fill="#AF7C00" transform="translate(239,248)"/>
<path d="M0 0 C0.99 0 1.98 0 3 0 C3 3.96 3 7.92 3 12 C4.32 11.01 5.64 10.02 7 9 C9.18359375 8.53125 9.18359375 8.53125 11.4375 8.5 C12.17871094 8.4690625 12.91992188 8.438125 13.68359375 8.40625 C17.37540062 9.35254788 18.76297624 10.94560217 21 14 C21.58950888 17.13311029 21.47531493 20.13886131 21.3125 23.3125 C21.28994141 24.14845703 21.26738281 24.98441406 21.24414062 25.84570312 C21.1855061 27.89791149 21.09583215 29.94919202 21 32 C20.01 32 19.02 32 18 32 C17.95101563 30.79601562 17.90203125 29.59203125 17.8515625 28.3515625 C17.77653657 26.77601802 17.70098867 25.20049834 17.625 23.625 C17.5940625 22.8309375 17.563125 22.036875 17.53125 21.21875 C17.48183579 16.63332625 17.48183579 16.63332625 15 13 C10.93904042 12.52786327 10.93904042 12.52786327 7 13 C3.89021007 15.79739094 3.59841314 18.6094051 3.38085938 22.68359375 C3.35830078 23.36550781 3.33574219 24.04742187 3.3125 24.75 C3.27833984 25.44738281 3.24417969 26.14476562 3.20898438 26.86328125 C3.12691705 28.57497108 3.06177081 30.2874576 3 32 C2.01 32 1.02 32 0 32 C0 21.44 0 10.88 0 0 Z " fill="#C68C00" transform="translate(318,357)"/>
<path d="M0 0 C3.14799439 1.30025855 4.6372963 2.58893581 6.875 5.125 C8.4991588 9.27562805 8.15204571 12.73201857 7 17 C4.83674266 20.46121174 3.87775207 21.70741598 0 23 C-4.84510801 23.63512652 -7.96415607 23.79341237 -11.9375 20.75 C-15.25302783 16.32929623 -16.6792362 13.66030164 -16 8 C-11.87597989 0.60520531 -8.07822598 -0.91022265 0 0 Z M-10.5 4.4375 C-12.73570183 8.25682396 -12.76004105 11.68518361 -12 16 C-10.68620182 18.73061576 -10.68620182 18.73061576 -8 20 C-3.97357614 20.78383251 -1.04746569 20.67145236 2.4375 18.4375 C4.51858903 15.19100111 4.93249957 12.84752461 5 9 C3.65437601 6.05244268 2.91445456 4.45722728 0 3 C-5.52003607 2.4870611 -5.52003607 2.4870611 -10.5 4.4375 Z " fill="#C08800" transform="translate(122,366)"/>
<path d="M0 0 C1.87988281 0.27514648 1.87988281 0.27514648 4 1 C5.09667969 2.58227539 5.09667969 2.58227539 5.921875 4.59765625 C6.22480469 5.31630859 6.52773437 6.03496094 6.83984375 6.77539062 C7.14019531 7.53013672 7.44054687 8.28488281 7.75 9.0625 C8.22373047 10.20041992 8.22373047 10.20041992 8.70703125 11.36132812 C9.48491249 13.23531476 10.24424502 15.11698127 11 17 C14.37522204 12.9595168 15.82834434 8.47511297 17.62109375 3.58203125 C19 1 19 1 21.16015625 0.13671875 C21.76730469 0.09160156 22.37445313 0.04648437 23 0 C20.35513141 7.42597718 17.37499869 14.56688456 13.875 21.625 C13.53855469 22.31142578 13.20210937 22.99785156 12.85546875 23.70507812 C9.6400935 30.07863815 9.6400935 30.07863815 7 32 C3.90498792 32.25265405 1.79870027 32.39935013 -1 31 C-1 30.01 -1 29.02 -1 28 C0.093125 28.0825 1.18625 28.165 2.3125 28.25 C5.91639412 28.31622445 5.91639412 28.31622445 8.125 26.5625 C10.46981344 19.69554635 4.10902356 10.75964756 1.20703125 4.72265625 C0 2 0 2 0 0 Z " fill="#BF8700" transform="translate(135,366)"/>
<path d="M0 0 C1.94140625 0.34375 1.94140625 0.34375 4.44140625 1.90625 C6.51632426 5.27799177 6.50636547 7.45965535 5.94140625 11.34375 C3.73964811 13.57573823 2.55564061 14.31733132 -0.6015625 14.453125 C-1.47425781 14.33453125 -2.34695313 14.2159375 -3.24609375 14.09375 C-4.12652344 13.98546875 -5.00695312 13.8771875 -5.9140625 13.765625 C-8.05859375 13.34375 -8.05859375 13.34375 -9.05859375 12.34375 C-9.26171875 10.3828125 -9.26171875 10.3828125 -9.30859375 7.96875 C-9.334375 7.17726563 -9.36015625 6.38578125 -9.38671875 5.5703125 C-9.05859375 3.34375 -9.05859375 3.34375 -7.7890625 1.58203125 C-5.32331972 -0.18239417 -2.95993875 -0.13082602 0 0 Z " fill="#C28900" transform="translate(282.05859375,101.65625)"/>
<path d="M0 0 C1.94140625 0.34765625 1.94140625 0.34765625 4.44140625 1.97265625 C6.39703107 5.06906221 6.54165102 6.7461876 5.94140625 10.34765625 C4.56640625 12.78515625 4.56640625 12.78515625 1.94140625 14.34765625 C-1.4676278 14.423533 -4.72498856 14.0580967 -8.05859375 13.34765625 C-9.63781781 11.76843219 -9.26625275 10.15321751 -9.30859375 7.97265625 C-9.334375 7.18117188 -9.36015625 6.3896875 -9.38671875 5.57421875 C-9.05859375 3.34765625 -9.05859375 3.34765625 -7.7890625 1.5859375 C-5.32381474 -0.1781337 -2.95943695 -0.12535368 0 0 Z " fill="#C28A00" transform="translate(206.05859375,101.65234375)"/>
<path d="M0 0 C0.99 0 1.98 0 3 0 C3.33 0.66 3.66 1.32 4 2 C4.99 1.34 5.98 0.68 7 0 C13.94677871 -0.67226891 13.94677871 -0.67226891 17.9375 1.875 C21.73519048 5.78777201 21.11710664 9.44997093 21.0625 14.625 C21.05798828 15.42679687 21.05347656 16.22859375 21.04882812 17.0546875 C21.03703168 19.03649006 21.01909605 21.01825433 21 23 C20.01 23 19.02 23 18 23 C17.95101563 21.87980469 17.90203125 20.75960938 17.8515625 19.60546875 C17.77652144 18.13278797 17.70097418 16.66013293 17.625 15.1875 C17.5940625 14.44951172 17.563125 13.71152344 17.53125 12.95117188 C17.32653852 9.18106885 17.13566173 7.20349259 15 4 C9.91646725 3.36452505 9.91646725 3.36452505 5.2890625 5.01171875 C3.25211053 8.15356285 3.42364881 11.55134616 3.3125 15.1875 C3.27833984 15.93708984 3.24417969 16.68667969 3.20898438 17.45898438 C3.12665706 19.30546838 3.06164719 21.15270994 3 23 C2.01 23 1.02 23 0 23 C0 15.41 0 7.82 0 0 Z " fill="#C48B00" transform="translate(380,366)"/>
<path d="M0 0 C0.33 0 0.66 0 1 0 C1.33941704 3.97867183 1.67041655 7.95800248 2 11.9375 C2.09539062 13.05447266 2.19078125 14.17144531 2.2890625 15.32226562 C2.80242306 21.57426392 3.10643087 27.72723037 3 34 C-1.75 33.125 -1.75 33.125 -4 32 C-4.28621908 9.92932862 -4.28621908 9.92932862 -1 5 C-0.61500109 3.34450469 -0.27206865 1.6777567 0 0 Z " fill="#B68100" transform="translate(226,271)"/>
<path d="M0 0 C3 1.5 3 1.5 5 3 C4.67 3.99 4.34 4.98 4 6 C3.505 5.67 3.01 5.34 2.5 5 C-1.21669939 3.51332025 -3.9941956 3.68207902 -8 4 C-10.16666667 4.83333333 -10.16666667 4.83333333 -11 7 C-11.38567013 11.04953637 -11.50238217 13.74404458 -10 17.5 C-6.8984512 19.8261616 -3.67826065 19.51806488 0 19 C2.40557853 18.13734032 2.40557853 18.13734032 4 17 C4 18.32 4 19.64 4 21 C-0.04485657 23.69657104 -3.25307196 23.5422677 -8 23 C-11.89729017 21.34157865 -13.42186137 19.8630089 -15 16 C-15.52484661 12.60230877 -15.55493704 9.39555537 -15 6 C-10.69907848 0.45407488 -6.88428647 -0.7897843 0 0 Z " fill="#BC8500" transform="translate(304,366)"/>
<path d="M0 0 C0.99 0 1.98 0 3 0 C3 1.65 3 3.3 3 5 C5.31 5 7.62 5 10 5 C10 5.99 10 6.98 10 8 C7.69 8 5.38 8 3 8 C3.33 13.28 3.66 18.56 4 24 C6.31 24.33 8.62 24.66 11 25 C10.67 25.99 10.34 26.98 10 28 C6.6875 28.25 6.6875 28.25 3 28 C0.12816335 25.49366983 -0.00384266 23.94896941 -0.29296875 20.109375 C-0.27314945 18.65595991 -0.23754845 17.20268833 -0.1875 15.75 C-0.16719727 14.63238281 -0.16719727 14.63238281 -0.14648438 13.4921875 C-0.11127204 11.66114584 -0.05746851 9.83047831 0 8 C-1.32 8 -2.64 8 -4 8 C-4 7.01 -4 6.02 -4 5 C-2.68 5 -1.36 5 0 5 C0 3.35 0 1.7 0 0 Z " fill="#C68C00" transform="translate(271,361)"/>
<path d="M0 0 C0.99 0 1.98 0 3 0 C3 10.56 3 21.12 3 32 C2.01 32 1.02 32 0 32 C0 21.44 0 10.88 0 0 Z " fill="#C68D00" transform="translate(194,357)"/>
<path d="M0 0 C3.15227367 0.07450829 3.96888675 0.26181789 6.625 2.1875 C8.125 4.375 8.125 4.375 8.125 7.375 C2.845 7.375 -2.435 7.375 -7.875 7.375 C-5.12332215 0.49580537 -5.12332215 0.49580537 0 0 Z " fill="#050300" transform="translate(358.875,368.625)"/>
<path d="M0 0 C0.66 0.33 1.32 0.66 2 1 C-0.875 5.875 -0.875 5.875 -2 7 C-2.23820921 9.03270562 -2.23820921 9.03270562 -2.25 11.375 C-2.27578125 12.16648437 -2.3015625 12.95796875 -2.328125 13.7734375 C-1.92214077 16.5283305 -1.21075761 17.35347287 1 19 C4.10839021 19.7269226 4.10839021 19.7269226 7 20 C5.68 20.33 4.36 20.66 3 21 C3 21.66 3 22.32 3 23 C0.07838001 22.67537556 -1.29328947 21.78173807 -3.6875 20 C-6.69957216 16.09244693 -7.4574522 12.90250655 -7 8 C-5.04164766 4.15323647 -3.58550738 2.39033825 0 0 Z " fill="#BC8500" transform="translate(113,366)"/>
<path d="M0 0 C1.51400391 0.01740234 1.51400391 0.01740234 3.05859375 0.03515625 C4.07050781 0.04417969 5.08242187 0.05320312 6.125 0.0625 C7.29869141 0.07990234 7.29869141 0.07990234 8.49609375 0.09765625 C8.69921875 4.87109375 8.69921875 4.87109375 6.87109375 6.91015625 C3.83079685 8.4303047 1.85567666 8.52653917 -1.50390625 8.09765625 C-3.44140625 6.84765625 -3.44140625 6.84765625 -4.50390625 5.09765625 C-4.08521335 1.53876658 -3.71986713 0.14508062 0 0 Z " fill="#0B0800" transform="translate(170.50390625,378.90234375)"/>
<path d="M0 0 C2.98647586 1.29846777 4.50757748 2.33630008 6.4375 4.9375 C7 7 7 7 5 11 C-0.61 11 -6.22 11 -12 11 C-12 10.67 -12 10.34 -12 10 C-6.72 10 -1.44 10 4 10 C2.66436384 5.05536365 2.66436384 5.05536365 0 4 C-6.31645868 3.58492826 -6.31645868 3.58492826 -12 6 C-12 3 -12 3 -10.5 1.3125 C-7.01626983 -0.51645834 -3.81278482 -0.56092659 0 0 Z " fill="#B98300" transform="translate(363,366)"/>
<path d="M0 0 C3.83473284 -0.35671933 5.55342875 -0.29771416 8.8125 1.875 C11.89485849 4.8692911 11.98707913 5.48213147 12.09765625 9.9140625 C12.09100226 11.48440463 12.07906939 13.05473119 12.0625 14.625 C12.05798828 15.42679687 12.05347656 16.22859375 12.04882812 17.0546875 C12.03703168 19.03649006 12.01909605 21.01825433 12 23 C11.01 23 10.02 23 9 23 C8.97421875 21.89140625 8.9484375 20.7828125 8.921875 19.640625 C8.86558344 18.17704453 8.80823633 16.71350438 8.75 15.25 C8.73582031 14.52039063 8.72164063 13.79078125 8.70703125 13.0390625 C8.54643836 9.50601902 8.28950173 7.38117727 6.125 4.53125 C3.72450925 2.8014846 1.91955466 2.32439496 -1 2 C-0.67 1.34 -0.34 0.68 0 0 Z " fill="#C78D00" transform="translate(389,366)"/>
<path d="M0 0 C2.4375 0.8125 2.4375 0.8125 4.4375 2.8125 C4.6875 5.3125 4.6875 5.3125 4.4375 7.8125 C2.4375 9.8125 2.4375 9.8125 -0.5625 10.0625 C-3.5625 9.8125 -3.5625 9.8125 -5.5625 7.8125 C-5.93046448 4.94237704 -5.93759409 3.40475382 -4.375 0.9375 C-2.5625 -0.1875 -2.5625 -0.1875 0 0 Z " fill="#C88E00" transform="translate(310.5625,125.1875)"/>
<path d="M0 0 C2.4375 0.8125 2.4375 0.8125 4.4375 2.8125 C4.6875 5.3125 4.6875 5.3125 4.4375 7.8125 C2.4375 9.8125 2.4375 9.8125 -0.5625 10.0625 C-3.5625 9.8125 -3.5625 9.8125 -5.5625 7.8125 C-5.93046448 4.94237704 -5.93759409 3.40475382 -4.375 0.9375 C-2.5625 -0.1875 -2.5625 -0.1875 0 0 Z " fill="#BC8500" transform="translate(175.5625,125.1875)"/>
<path d="M0 0 C0.99 0 1.98 0 3 0 C3 7.59 3 15.18 3 23 C2.01 23 1.02 23 0 23 C0 15.41 0 7.82 0 0 Z " fill="#D29500" transform="translate(256,366)"/>
<path d="M0 0 C0.66 0 1.32 0 2 0 C2 11.88 2 23.76 2 36 C1.67 36 1.34 36 1 36 C0.97494385 35.08186523 0.9498877 34.16373047 0.92407227 33.21777344 C0.8287973 29.80342975 0.72957222 26.38924797 0.62768555 22.97509766 C0.58443965 21.4989061 0.54275744 20.02266785 0.50268555 18.54638672 C0.44473154 16.42140652 0.38111054 14.29665907 0.31640625 12.171875 C0.27974854 10.8940918 0.24309082 9.61630859 0.20532227 8.29980469 C0.04157719 5.66820127 -0.34725749 3.52246257 -1 1 C-0.67 0.67 -0.34 0.34 0 0 Z " fill="#9F7000" transform="translate(267,248)"/>
<path d="M0 0 C0.66 0.33 1.32 0.66 2 1 C-0.875 5.875 -0.875 5.875 -2 7 C-2.36760731 9.32817964 -2.70241581 11.6618385 -3 14 C-3.33 14 -3.66 14 -4 14 C-4.33 12.35 -4.66 10.7 -5 9 C-5.33 10.65 -5.66 12.3 -6 14 C-6.33 14 -6.66 14 -7 14 C-7.50432107 8.7046288 -6.28757779 6.13295494 -3 2 C-2.01 1.34 -1.02 0.68 0 0 Z " fill="#A47400" transform="translate(113,366)"/>
<path d="M0 0 C1.84375 0.36328125 1.84375 0.36328125 4 1 C5.58025005 1.21192095 7.16398461 1.39923371 8.75 1.5625 C9.54921875 1.64628906 10.3484375 1.73007812 11.171875 1.81640625 C12.07679688 1.90728516 12.07679688 1.90728516 13 2 C13 3.65 13 5.3 13 7 C12.67 5.68 12.34 4.36 12 3 C10.22880197 3.14133499 8.45804713 3.28823208 6.6875 3.4375 C5.20830078 3.55931641 5.20830078 3.55931641 3.69921875 3.68359375 C0.90624401 3.91812559 0.90624401 3.91812559 -2 5 C-3.20882096 7.00016466 -3.20882096 7.00016466 -4 9 C-4.37010337 5.6690697 -4.27461204 4.37268777 -2.25 1.625 C-1.5075 1.08875 -0.765 0.5525 0 0 Z " fill="#876000" transform="translate(167,376)"/>
<path d="M0 0 C0.28875 0.61875 0.5775 1.2375 0.875 1.875 C1.93720042 4.13325765 1.93720042 4.13325765 4 6 C4 6.99 4 7.98 4 9 C0.125 7.125 0.125 7.125 -1 6 C-1.125 3.5 -1.125 3.5 -1 1 C-0.67 0.67 -0.34 0.34 0 0 Z " fill="#C68C00" transform="translate(165,380)"/>
<path d="M0 0 C1.32 0.66 2.64 1.32 4 2 C0.7 2.66 -2.6 3.32 -6 4 C-6.33 3.01 -6.66 2.02 -7 1 C-3.375 -1.125 -3.375 -1.125 0 0 Z " fill="#AD7B00" transform="translate(171,367)"/>
<path d="M0 0 C0.66 0.66 1.32 1.32 2 2 C2.7425 1.608125 3.485 1.21625 4.25 0.8125 C5.1575 0.544375 6.065 0.27625 7 0 C8.32 0.99 9.64 1.98 11 3 C7.37 3.33 3.74 3.66 0 4 C0 2.68 0 1.36 0 0 Z " fill="#A67600" transform="translate(382,366)"/>
<path d="M0 0 C1.1446875 0.3403125 1.1446875 0.3403125 2.3125 0.6875 C1.735 0.914375 1.1575 1.14125 0.5625 1.375 C-2.2538661 3.01788023 -3.76827114 5.08283227 -5.6875 7.6875 C-5.91482116 4.88387237 -6.02831872 3.22563483 -4.5 0.8125 C-2.6875 -0.3125 -2.6875 -0.3125 0 0 Z " fill="#9E7000" transform="translate(310.6875,125.3125)"/>
<path d="M0 0 C-0.66 1.32 -1.32 2.64 -2 4 C-2.66 4 -3.32 4 -4 4 C-4 6.97 -4 9.94 -4 13 C-4.33 13 -4.66 13 -5 13 C-5.08121924 11.39667209 -5.13929134 9.79215974 -5.1875 8.1875 C-5.22230469 7.29417969 -5.25710937 6.40085937 -5.29296875 5.48046875 C-5 3 -5 3 -3.61328125 1.17578125 C-2 0 -2 0 0 0 Z " fill="#966A00" transform="translate(239,90)"/>
<path d="M0 0 C1.32 0 2.64 0 4 0 C3.67 1.32 3.34 2.64 3 4 C1.68 3.67 0.36 3.34 -1 3 C-0.67 2.01 -0.34 1.02 0 0 Z " fill="#B17D00" transform="translate(256,357)"/>
</svg>
